<svg id="Layer_1" data-name="Layer 1" xmlns="http://www.w3.org/2000/svg" viewBox="0 0 406.85 414.33"><defs><style>.cls-1{fill:none}.cls-2{fill:#f8e8e2}.cls-3{fill:#f6e1d9}.cls-4{fill:#dcbbb2}.cls-13,.cls-15,.cls-5,.cls-8{fill:#e3b8a5}.cls-5{opacity:.4}.cls-6{fill:#bb9979}.cls-7{fill:#f4dad5}.cls-11,.cls-8{opacity:.6}.cls-9{fill:#f3e2de}.cls-10{fill:#efd7cd}.cls-11{fill:#d2795e}.cls-12{fill:#cdb298}.cls-13{opacity:.65}.cls-14{fill:#d2ae9f}.cls-16{fill:#8c7158}.cls-17{fill:#fff}.cls-18{fill:#2c8f9f}</style></defs><title>thyroid_build Pieces_onBorads</title><path class="cls-1" d="M318 414.33h3.08l-2.72-6.49s-.15 2.91-.36 6.49z"/><path class="cls-2" d="M318.34 407.84l2.72 6.49h82.45c-1.82-3.53-14.21-27.5-21-39.59-7.36-13.08 3.27 3.27-13.49-39.23s-42.91-55.57-51.49-59.66-25.74-6.54-31.87-8.17-28.2-17.57-30.24-21.25 3.68-6.13 5.72-9 16.79-5.65 24.93-6.54c9.43-1 19.78-2.4 22.91-11.58 1.54-4.51-1.66-8.85-2.07-14.16s6.95-7.76 7.76-11a6.9 6.9 0 0 0-1.23-5.72s5.88-4.24 5.72-8.17c-.07-1.68-2-8.17-3.27-15.12s7.34-1.07 9.09-11c1.36-7.73-10.32-15.94-16.86-21.66-4.35-3.81-1.28-10 1.26-13.66a4.46 4.46 0 0 0-.7-5.87l-.56-.49a77.35 77.35 0 0 0-2.45-42.91c2.45 2 8-3.07 9.68-4.7s2.3-13-1.38-14.65-21.29-14.65-42.21-25.6C203.52-9.38 157.75 7 141.41 14.33s-33.1 33.1-33.1 36.78l-2 .41c-2 .41-4.49 1.63-14.71 24.11s-8.22 50.25-5.36 67.37 24.93 49.85 30.65 56 8.17 4.9 11.44 6.54 8.58 5.72 10.22 7.76 1.28 9.66 1.28 15 2.4 15.67.35 19.76-22.62 12.08-33.1 18.8c-6.86 4.4-23.7 1.63-46.18 18.8s-28.6 60.48-29 69.47-15.54 37.59-20.85 46.17l-6.51 13H318c.21-3.55.34-6.46.34-6.46z"/><path class="cls-3" d="M73 287.71c7.26 4.3 14.79 17.21 12.37 23.12s-3.76 18.82-.54 28.5 2.69 21 2.69 21-1.88 8.6 4.57 5.65S112 327.23 112 327.23s14-15.86 22.85-18.82 22.59-9.95 29-9.95 18.82-22.59 18.82-22.59-3.76-22-5.65-22-15.86 2.42-15.86 2.42-28.23 1.88-35.49 4.57-16.4 11.56-23.66 12.37-21.78 2.42-25 4.57-12.1 7-14.79 10.49 1.61 4.3 3.23 3 7.55-3.58 7.55-3.58zM41.24 338.79c-2.69 10.22-6.45 16.13-5.92 21.51s-7.53 23.12-9.68 25.81S17 403.86 17 403.86s10.76-15.06 19.9-23.66 17.21-8.07 19.36-12.37-1.61-7-5.92-15.06-8.07-13.44-7-19.36-2.1 5.38-2.1 5.38z"/><path class="cls-4" d="M89 400.46a137.47 137.47 0 0 1 3.29-16.09 2 2 0 0 0 0-.79C92 380.91 90 366 90.23 370.42c.48 8.24-1.94 21.57-3.15 25.44-1.1 3.51-5.17 15.36-6.65 18.47h5.44c1.13-4.48 2.69-9.75 3.13-13.87z"/><path class="cls-5" d="M87.08 411.85l5.57-15.51s.73-7.51 1.94-9.21 8.24 4.6 8.24 4.6 6.06 2.42 5.57 1.7-9-12.36-9-12.36a56.63 56.63 0 0 0-7.75-14.3l-2.18-.24S91 380.11 91 384.71c0 3.91-6.48 23.76-8.42 29.62h3.62c.53-1.5.88-2.48.88-2.48z"/><path class="cls-6" d="M143.05 209.73c4.3-.72 8.6-4.66 10.4-5.38s5-10.76 5-10.76 1.08-20.79 1.43-22.23 4.66-6.45 4.66-9.68 4.66-5.74 4.66-5.74-5-9-3.23-17.57 8.62-17.87 17.63-23.57c5.21-3.3 16.18-5.52 21.2-1.22s8.05 4.68 9 7.38a50.58 50.58 0 0 0 3.09 7 5.65 5.65 0 0 0 5.38 3.23c1.43 0 4.66-.36 5.38-2.51s3.57-17.69 6.27-19.6 11.66-8 13.45-10.16 11.11-7.17 16.13-12.19 5.38-15.77 7.17-18.28 14.7-3.59 17.57-3.59 12.19 0 15.77.72 8.33 1.22 11.33-4.05c.34-.6.78-1.3 1.27-2.06.21-3.81-.42-8.38-2.65-9.37-3.68-1.63-21.29-14.65-42.21-25.6-68.23-33.88-114-17.5-130.34-10.17s-33.1 33.1-33.1 36.78l-2 .41c-2 .41-4.5 1.63-14.71 24.11s-8.22 50.25-5.36 67.37 24.93 49.85 30.65 56a28.46 28.46 0 0 0 2.73 2.59q2.36 1.43 4.51 2.57a27.74 27.74 0 0 1 4.2 1.37 32.11 32.11 0 0 1 3.6 2.2c5.07 1.94 8.83 2.39 11.12 2z"/><path class="cls-3" d="M346.14 302.23c-11.29-4.57-25.54-12.37-32.8-11.56s-12.91 3.23-14.25 7.53-2.42 11.83 1.61 21 8.07 22 8.07 22 7.23 14.26 7.23 15.61-.54 14-2.69 17.21-20.7 12.64-20.7 12.64l-20.17-30.11s-19.9-35.22-28.5-42.21-14.25-30.65-14.25-30.65 16.97-22.87 21.31-25.29 2.69-3.5 17.21 4.57 21.51 7 25.27 7.8a14.17 14.17 0 0 1 6.72 3c2.42 1.61-.54-.54-4.84 3.23s2.42-3.76 18 1.88 20.17 9.95 25.54 14.25a24.49 24.49 0 0 1 7.24 9.1z"/><path class="cls-5" d="M198.55 164.68c2.67 1.94 4.36 4.6 3.63 5.82s-5.82 2.18-4.85-.48a24 24 0 0 0 1.22-5.34z"/><path class="cls-7" d="M119.13 283.56a1.3 1.3 0 0 1 .91-2.4 147 147 0 0 0 23 2.75c8.22.23 22.8-.21 23.7-.24h.1l5.86.33a1.3 1.3 0 0 1 1 2.05l-3.27 4.58a1.28 1.28 0 0 1-.54.44c-2.25 1-15.45 6.27-28.26 2.52-7.63-2.23-16.26-6.59-22.5-10.03zM297.74 283.56a1.3 1.3 0 0 0-.91-2.4 147 147 0 0 1-23 2.75c-8.22.23-22.8-.21-23.7-.24H250l-5.84.34a1.3 1.3 0 0 0-1 2.05l3.27 4.58a1.28 1.28 0 0 0 .54.44c2.25 1 15.45 6.27 28.26 2.52 7.69-2.24 16.28-6.6 22.51-10.04z"/><path class="cls-4" d="M317.64 414c-2.72-13.06-5.34-31.75-5-36.53a20.57 20.57 0 0 1 3.39-9.94c-.48 6.06-1.7 25.2 2.67 36.59 3.67 9.58-.08 3.9.62 6.65"/><path class="cls-8" d="M208 166.14c0 2.91-.48 4.85-1.7 6.54s-.73 1.94-4.85 2.18-4.12.24-6.06.24-2.18 2.18.24 3.63 6.79 3.88 8.48 3.63 8.24-4.85 8.24-4.85 1.45-5.33 0-8.24a9.72 9.72 0 0 0-3.88-4.12z"/><path class="cls-5" d="M267.12 82.53c0 1.7-4.85 7.75-4.85 7.75l-17 13.81-11.39 8.24-4.85 10.9s-1.94 10.9-4.36 12.12-8-1.94-8-1.94-2.91-8.48-2.91-9.21-1.45-5.09 3.39-7.51S231 105.55 231 105.55s10-5.55 15.53-9.69 8.72-8.24 13.33-11.63 4.12-5.57 7-5.82.26 4.12.26 4.12z"/><path class="cls-9" d="M148.26 397.16c3-.28 5.66-3.11 6.4-6.22s-3.2-4.53-4.43-4.81-8.54.15-8.37 4.81c.25 6.5 6.4 6.22 6.4 6.22z"/><path class="cls-10" d="M148.29 393.9a3.34 3.34 0 0 0 2.64-2.57c.3-1.28-1.32-1.87-1.83-2s-3.52.06-3.45 2a2.51 2.51 0 0 0 2.64 2.57z"/><path class="cls-9" d="M265.33 397c2.82-.93 4.84-4.28 4.87-7.48s-4.12-3.71-5.38-3.71-8.3 2-7.1 6.53c1.67 6.32 7.61 4.66 7.61 4.66z"/><path class="cls-10" d="M264.64 393.84a3.34 3.34 0 0 0 2-3.08c0-1.32-1.7-1.53-2.22-1.53s-3.42.84-2.93 2.69a2.51 2.51 0 0 0 3.15 1.92z"/><path class="cls-5" d="M312.92 59.51c-4.6 3.15-9.45 7.51-12.84 5.09s-4.85-7.27-7.51-6.3-.48 10.66-3.15 10.9-8.24 3.88-8.24 3.88l1.94 12.36s11.15 6.06 10.18 12.12-7.27 12.12-2.67 15.27 5.93 3.33 8 4.6c1 .62 4.16 1.76 5.17 2.7a8 8 0 0 1 2.44 5.18 20.81 20.81 0 0 1 3.15-6.54 4.46 4.46 0 0 0-.7-5.87l-.56-.49a77.35 77.35 0 0 0-2.45-42.91c2.45 2 8-3.07 9.68-4.7s2.3-13-1.38-14.65l-.42-.21c1.67 5.06 2.76 7.25-.64 9.57z"/><path class="cls-1" d="M318 414.33h3.08l-2.72-6.49s-.15 2.91-.36 6.49z"/><path class="cls-5" d="M318.34 407.84l2.72 6.49h.5l-6.46-29.14 1-17.69s1-5.57 1-6.3-2.18-1.21-2.91.48-4.6 13.09-6.54 16.24a37.5 37.5 0 0 1-6.54 7.75c-1.7 1.45-4.85 3.39-.48 3.39s6.54 5.82 6.54 5.82l-1.7 18.9.13.54H318c.21-3.57.34-6.48.34-6.48z"/><path class="cls-8" d="M320.68 154.26c-4.12 1.94-5.33 1.94-6.54 3.39s-1.7 2.91-4.12 1.45-3.63-1.7-3.88-.48.53 8.54 2.47 9.27 3.83-.79 6.74-.31a6.91 6.91 0 0 1 1.08.29c-.19-.91-.37-1.83-.53-2.77-1.23-6.95 7.34-1.07 9.09-11a9.24 9.24 0 0 0-1.18-5.91c-.09 3.99-.1 4.64-3.13 6.07zM120.76 263.79c5.09-1.7 13.09-7.27 18.42-7.51s5.82-1.94 10.9-6.06 2.18-9 0-16.48a59.57 59.57 0 0 1-2.42-12.12l12.84-20.36 1-14.3s8.48-11.39 11.87-13.81 11.87 0 11.87 0l-8.48-2.91S170.44 162 168 157.9s-1.45-22.05-1.45-22.05-3.15 2.91-3.63 6.3-3.39 16.72-3.39 16.72l-5.09 17.21-2.91 16.48-6.3 3.39s-6.54-4.12-11.87-5.57-13.09-2.67-13.09-2.67L105 172.92s-2.59.09-5.71.23c6.92 11.91 14.55 22.63 17.59 25.88 5.72 6.13 8.17 4.9 11.44 6.54s8.58 5.72 10.22 7.76 1.28 9.66 1.28 15 2.4 15.67.35 19.76C138.42 251.58 122.92 258 112 264c3.31.37 6.72.47 8.76-.21z"/><path class="cls-11" d="M307.06 185.8a5.79 5.79 0 0 0-3 .85s2.61 3.87 4.71 5.18a20.13 20.13 0 0 0 5.72 2.69 2.9 2.9 0 0 0 .15-.39 6.9 6.9 0 0 0-1.23-5.72s5.88-4.24 5.72-8.17c0-.11 0-.29-.06-.43-4.85 2.48-5.68 3.8-8.06 4.55-1.59.51-2.5 1.44-3.95 1.44z"/><path class="cls-8" d="M304.2 205.63c.73 2.91 1.7 7 1 9.69s-5.09 5.82-8.72 5.82-10.42 1.21-11.87-.24a19.26 19.26 0 0 1-2.67-3.63c-1.7 2.91-2.91 8.48-11.87 8.72a119.22 119.22 0 0 0-18.66 1.7 8.48 8.48 0 0 0-1.87.59 11.06 11.06 0 0 0-6.27 9.71 8.25 8.25 0 0 0 .63 4c1.7 3.39 1.7 3.39 10.9 9.21s25.93 14.3 27.38 16 5.09 3.39 10.9 4.6 8.72 0 8.72 0-1.09-.49-2.88-1.32c-5.46-1.15-10.47-2.05-13.24-2.79-6.13-1.63-28.2-17.57-30.24-21.25s3.68-6.13 5.72-9 16.79-5.65 24.93-6.54c9.43-1 19.78-2.4 22.91-11.58 1.54-4.51-1.66-8.85-2.07-14.16-.18-2.31 1.12-4.08 2.7-5.61a2.91 2.91 0 0 0-.56.27c-3.17 1.94-5.6 2.91-4.87 5.81z"/><path class="cls-12" d="M292.59 110.27c-1.46-.5-11.67-2.22-22.25 4.88a22.31 22.31 0 0 0-2.7 3 29 29 0 0 0 3.56-2c1.4-1 16.48-4.61 18.8-4.23s3.37.19 3.35-.66a.88.88 0 0 0-.76-.99zM93.51 112.8a5.56 5.56 0 0 0 .21 1c1.13 3.69 8.65 28.53 11 41.12 2.51 13.62 6.09 9.68 14.7 17.57 7 6.46 10.25.17 11.17-2.31a5.84 5.84 0 0 1 1.09-1.82L148 149.79a6 6 0 0 0 1.43-3.15l3.42-25.48a6 6 0 0 1 1.86-3.59l11.6-10.73a6 6 0 0 1 2.72-1.44l22.76-5.23a6 6 0 0 1 4.31.64c3.66 2.1 11.23 6.81 15.48 12.11 2.81 3.51 3.3 3.33 3.06 2.22a5.85 5.85 0 0 1 2.4-5.92l2.6-1.86a6 6 0 0 1 2.79-1.07l9.91-1.13a6 6 0 0 0 2.08-.64c3.66-1.91 16.38-8.56 17.3-9.17 1.08-.72 7.89-9 8.18-11.14s-1-15 1.14-17.54c1.9-2.21 9.93-1.36 11.8-1.13a5.72 5.72 0 0 0 .83 0l16.84-.34a5.86 5.86 0 0 1 1.27.11 117.85 117.85 0 0 1 16.43 4.41c2.65-.75 6-3.8 7.17-5 1.63-1.63 2.3-13-1.38-14.65s-21.29-14.65-42.21-25.6C203.52-9.38 157.75 7 141.41 14.33c-13.39 6-27 24.38-31.55 32.85a47.09 47.09 0 0 0 4.66-2.78 5.94 5.94 0 0 0 1.54-1.51L125.82 29a5.92 5.92 0 0 1 1.84-1.7c3.26-1.92 12.78-7.62 14-9.4 1.43-2.15 17.21-6.09 20.08-6.81 2.55-.64 23.83-3 28.5-3.49a5.87 5.87 0 0 1 1.8.08l22.4 4.48 34.9 8.11a5.93 5.93 0 0 1 1.14.39c5.22 2.4 45.69 21.15 45.69 24.84 0 3.94-4.3 2.51-4.3 2.51s-24.38-4.66-31.91-8.6c-6.15-3.22-18.75-9.07-23.17-11.11a6 6 0 0 0-3.28-.49l-19.3 2.57a5.78 5.78 0 0 1-1 0c-3.55-.13-25.23-1.06-32.13-5-7.53-4.3-28.68 6.09-43 15.06C126 48 130.38 58.6 132.1 61.79a6 6 0 0 1 .7 2.23c.57 5.27 2.42 25-1.94 23.46-5-1.79-9.68 6.45-6.09 11.83 3.33 5 5.42 17.09 5.7 18.8 0 .15 0 .27.08.41.41 1.69 3.18 13.22 3.18 15.21 0 2.15-8.6 9.68-12.91 7.53s-4.66-5.74-12.19-19.36c-6.84-12.38-3-31-2.27-34.27a5.64 5.64 0 0 0 .14-1.06c.11-2.6.65-13.84 2.23-21.67a6 6 0 0 0-6.39-7.2h-.16a4 4 0 0 0-2.35 1.07c-.52.93-1.09 2-1.71 3.16-1 3-1.54 7.28-4.18 11.54-4.32 7.01-.94 35.23-.43 39.33z"/><path class="cls-13" d="M177.83 155.69a97.94 97.94 0 0 1 .54-10.22c.54-5.38 2.69-4.84 5.92-8.07s7-3.23 11.29-3.76 4 3.5 4 7l.2.25c4.33-5.41 9.07-12.69 5.53-15.7-4.85-4.12-9.94-7.27-15-2.91s-9 7.51-11.63 10.18-6.54 13.81-4.36 19.14a18.52 18.52 0 0 0 3.11 4.75 1 1 0 0 0 .4-.66z"/><path class="cls-14" d="M196.85 157.9s-.39-.28-1-.68a11.58 11.58 0 0 0-2.92-1.15 5.07 5.07 0 0 0-1.88-.12 1.42 1.42 0 0 0-.7.29 5 5 0 0 1-1.1.84 2.68 2.68 0 0 1-3.47-.76 5.58 5.58 0 0 1-1-3.06 14.15 14.15 0 0 1 .52-5.6 6.83 6.83 0 0 1 3.29-3.88 9.6 9.6 0 0 1 3.35-1l1.29-.07.07.78-1.18.28a8.42 8.42 0 0 0-2.8 1.21 5.65 5.65 0 0 0-2.34 3.21 13.94 13.94 0 0 0-.28 4.93 3.83 3.83 0 0 0 .57 2 .91.91 0 0 0 1.2.3 1.68 1.68 0 0 0 .34-.19c.17-.14.28-.24.56-.45a3.11 3.11 0 0 1 1.54-.46 5.47 5.47 0 0 1 2.43.51 8.11 8.11 0 0 1 2.79 2 4.73 4.73 0 0 1 .59.75z"/><path class="cls-14" d="M195.57 145.72s.74-1.28 2.1-3.41l2.4-3.83c.89-1.48 1.92-3.13 2.82-5a19.43 19.43 0 0 0 1.23-2.84 7.39 7.39 0 0 0 .5-2.73 2.45 2.45 0 0 0-.23-.91 1.11 1.11 0 0 1-.29-.3 6.45 6.45 0 0 0-.64-.57 32.3 32.3 0 0 0-3-2.25c-2.06-1.37-4.33-2.23-6.32-1.67a7.88 7.88 0 0 0-3 1.69l-3.34 2.75c-2.23 1.82-4.45 3.65-6.54 5.47l-1.52 1.38a7.13 7.13 0 0 0-.57.67c-.15.22-.3.39-.47.69a22.11 22.11 0 0 0-1.73 3.44 33.45 33.45 0 0 0-2.08 7.17 11.92 11.92 0 0 0 .41 6.36 20.33 20.33 0 0 0 3 4.79c1.09 1.35 2.15 2.44 3 3.35 1.75 1.81 2.85 2.74 2.85 2.74S183 162 181 160.4a41.66 41.66 0 0 1-3.42-3.06 21.52 21.52 0 0 1-3.75-4.79c-1.21-2.09-1.33-4.76-1.15-7.3a32.46 32.46 0 0 1 1.71-7.89 24.9 24.9 0 0 1 1.75-4 10.79 10.79 0 0 1 .66-1.07 9 9 0 0 1 .76-1l1.53-1.55c2.08-2 4.28-3.89 6.44-5.8l3.23-2.85a11 11 0 0 1 4.38-2.53 9.53 9.53 0 0 1 5.18.08 16.18 16.18 0 0 1 4.21 2 36.15 36.15 0 0 1 3.4 2.49 8.06 8.06 0 0 1 .81.71 14.71 14.71 0 0 1 1 1.16 13 13 0 0 1 .54 1.36 5.65 5.65 0 0 1 .18 1.32 9.55 9.55 0 0 1-.89 4.28 22.91 22.91 0 0 1-1.72 3.21 42.76 42.76 0 0 1-7 8.07c-1.9 1.71-3.1 2.57-3.1 2.57z"/><path class="cls-15" d="M305.65 154.32a16.83 16.83 0 0 0 .69 3.44c.32 1.13.69 2.24 1.11 3.31a24.36 24.36 0 0 0 1.42 3.1 11.46 11.46 0 0 0 .86 1.33 4.91 4.91 0 0 0 .47.54 4.25 4.25 0 0 0 .45.37l.54.55v.54a18.1 18.1 0 0 1-.43 3.82 32.52 32.52 0 0 1-.94 3.51 38.06 38.06 0 0 1-2.87 6.57c-.6 1-1.21 2-1.89 3-.32.5-.68 1-1 1.43s-.7.95-1.1 1.38a33.22 33.22 0 0 1-2.4 2.57c-.8.85-1.74 1.56-2.6 2.33.77-.88 1.61-1.68 2.3-2.61a32.59 32.59 0 0 0 2-2.79c.34-.46.61-1 .91-1.46s.59-1 .84-1.5c.55-1 1-2 1.46-3.09a36 36 0 0 0 2-6.47 29.83 29.83 0 0 0 .47-3.3 15.35 15.35 0 0 0 0-3.12l.54 1.09a9.49 9.49 0 0 1-1.85-3.76 26.42 26.42 0 0 1-.72-3.62q-.24-1.8-.32-3.59a17.18 17.18 0 0 1 .06-3.57z"/><path class="cls-16" d="M311.72 163.62l-.42-.67a8.41 8.41 0 0 1 5.48-2.37l-.75 2.1a9.63 9.63 0 0 0-4.31.94zM213.28 130.59s-.07-.59-.28-1.59a29.24 29.24 0 0 0-1.21-4.31 21.26 21.26 0 0 0-3.26-6 14.69 14.69 0 0 0-7.07-4.95 19.84 19.84 0 0 0-10.37-.19 27.34 27.34 0 0 0-10.4 5.26 38.18 38.18 0 0 0-8.45 9.43 34 34 0 0 0-4.87 12 23.44 23.44 0 0 0-.2 6.42 38.68 38.68 0 0 0 1.43 6.37 44.41 44.41 0 0 0 5.13 11.6c2.23 3.35 5 6.45 8.43 7a43.29 43.29 0 0 1 10.57 3.92c1.62.85 2.89 1.74 4.23 2.37a22.57 22.57 0 0 0 3.83 1.56 9.78 9.78 0 0 0 1.72.35 6 6 0 0 0 .77 0h.83a12.37 12.37 0 0 0 2.87-.63 5.34 5.34 0 0 0 3-2 2.45 2.45 0 0 0 .3-.92l2.76.2a5.1 5.1 0 0 1-.7 2.14 8 8 0 0 1-4.43 3.15 15 15 0 0 1-3.53.74c-.36 0-.7 0-1 .05a8.68 8.68 0 0 1-1.12-.05 12.4 12.4 0 0 1-2.19-.46 25.14 25.14 0 0 1-4.28-1.78c-1.45-.71-2.86-1.69-4.24-2.42a40.88 40.88 0 0 0-9.88-3.76c-.45-.08-1-.23-1.56-.4a10.68 10.68 0 0 1-1.55-.69 13.65 13.65 0 0 1-2.67-1.95 25.1 25.1 0 0 1-4.16-5.06 46.72 46.72 0 0 1-5.33-12.27 40.56 40.56 0 0 1-1.45-6.75 25.67 25.67 0 0 1 .27-7.07 36.11 36.11 0 0 1 5.27-12.79 40.22 40.22 0 0 1 9-9.88 29.13 29.13 0 0 1 11.3-5.56A20.77 20.77 0 0 1 202 112a16.34 16.34 0 0 1 7.74 5.67 22 22 0 0 1 3.32 6.55 30.41 30.41 0 0 1 1.06 4.58c.16 1.07.2 1.62.2 1.62z"/><path class="cls-17" d="M274.28 134.31l3.46 1.36 11.26-.93s2.93-11.15.92-11c-.52 0-.49-.85-4.44 2.2-4.16 1.64-9.23 3.07-10.31 3.79-.22.15-.92.69-1.13.87a2.67 2.67 0 0 0-.86 1.1z"/><path class="cls-18" d="M286.2 127.6a11.06 11.06 0 0 0 .12 4.28c.24.46.44 1.07.81 1.07a4.47 4.47 0 0 0 1.77-.09 2 2 0 0 0 .53-.73c.85-1.22.54-1.33 1-2.85a12.67 12.67 0 0 0 .52-5.88l-2.42.85-2.18 2z"/><path d="M289.19 126a5.79 5.79 0 0 0-.5 3.12 3.45 3.45 0 0 0 .46 1.8 1.19 1.19 0 0 0 .9.16c.37 0 .75-.8 1-1.55s.49-3.18-.12-4.21-1.25-.21-1.74.68z"/><path class="cls-3" d="M289.56 139.07c.05-.67-.62-1.61-.66-2.25 0-.32-.05-.64-.1-.94-1 .14-3.36 0-5.58 0 2.1 2.51.89 2.86-2.1 4.5-2.51 1.37-1 1.16 3 1.16 2.45 0 4.21-.17 5.14-.64a3.05 3.05 0 0 0 .3-1.83z"/><path class="cls-5" d="M290 122.31a1.19 1.19 0 0 1 1.11-.55c.18-.12.63-.75 1-2.56a7.83 7.83 0 0 0 .2-1.83 3.66 3.66 0 0 0-.47-.53c-.8-.75-3.81.19-5.38-.27-3.93-1.16 1.34 7 1.34 7l-.59.66c.31-.2.61-.39.95-.63a8.24 8.24 0 0 1 1.84-1.29z"/><path class="cls-14" d="M289.23 141.05a3.16 3.16 0 0 0 .33-2c.05-.67-.62-1.61-.66-2.25 0-.32-.05-.64-.1-.94-1.25.17-4.35 0-6.9 0-1.28 0-2.56.08-3.82.21s-4.92-2-5-2.23a8.46 8.46 0 0 1 .14-2.15 3.11 3.11 0 0 1 1-1.32 9.28 9.28 0 0 1 1.22-.87 25.8 25.8 0 0 1 2.55-1.36c1.72-.8 3.47-1.48 5.22-2.11l2.1-.76a16.2 16.2 0 0 0 2.88-1.71 8.24 8.24 0 0 1 1.81-1.28 1.19 1.19 0 0 1 1.11-.55c.18-.12.63-.75 1-2.56a13 13 0 0 0 .25-2.46c0-.49.11-1.4.94.69a15.17 15.17 0 0 1 .33 3.85 10 10 0 0 1-.16 2 2 2 0 0 1-.54.34 5.37 5.37 0 0 1-1.53.34c-.48 0-.94.06-1.41.07s-.72.61-1.34 1.22a30.62 30.62 0 0 1-2.84 1.65l-2.44.74c-1.77.36-3.53.77-5.28 1.31a23.3 23.3 0 0 0-2.59 1 8.17 8.17 0 0 0-1.25.67 2.69 2.69 0 0 0-1.06 1.14 8.65 8.65 0 0 0 1.22 2l.69.49a6.82 6.82 0 0 0 3 .61c1.33-.14 3-.39 4.36-.4 2.63 0 4.65-1.62 7.28-1.39l.8.08.15 1a10.45 10.45 0 0 1 .11 1.41v1.28a17.28 17.28 0 0 1-.31 2.45 4.11 4.11 0 0 1-1 2"/><path class="cls-1" d="M318.44 402.4l.9 5a.38.38 0 0 0 0 .1l2.85 6.81h76.9l2.88-.39q-5-8.43-9.8-17c-3.48-6.1-6.82-12.28-10.16-18.45-.85-1.57-1.65-3-2.54-4.6-.43-.81-.87-1.55-1.29-2.45a9.09 9.09 0 0 1-1-3.21 24.33 24.33 0 0 0-.26-2.49c-.12-.77-.31-1.59-.5-2.4-.4-1.63-.91-3.28-1.41-4.92-2.14-6.61-4.56-13.12-7.12-19.68-1.21-3.3-2.66-6.4-4-9.62-.72-1.57-1.51-3.11-2.26-4.67s-1.52-3.11-2.39-4.59a111.2 111.2 0 0 0-11.44-17.2 95.48 95.48 0 0 0-14.52-14.57 81.46 81.46 0 0 0-17.4-10.83c-6.12-2.63-13.07-4.06-19.87-5.54-3.43-.74-6.86-1.37-10.37-2.25a23.39 23.39 0 0 1-5.21-2.28c-1.59-.88-3.1-1.81-4.61-2.76a170.07 170.07 0 0 1-17.17-12.58 32.87 32.87 0 0 1-4.05-3.94l-.39-.53a4.47 4.47 0 0 1-.46-.92 4.36 4.36 0 0 1-.28-1.94 5.57 5.57 0 0 1 1.49-3.15 40.81 40.81 0 0 1 4.1-3.55c.64-.49.91-1 2-1.93a11.85 11.85 0 0 1 2.6-1.35 62.85 62.85 0 0 1 10.31-3c3.47-.75 6.93-1.43 10.47-2s6.93-.92 10.23-1.7a22.39 22.39 0 0 0 8.79-3.87 11.14 11.14 0 0 0 2.86-3.36 12.47 12.47 0 0 0 .94-2.12 6.42 6.42 0 0 0 .28-2c0-2.91-1.65-6.23-2.05-10.12a8.67 8.67 0 0 1 .12-3.1 7.44 7.44 0 0 1 1.44-2.82 20.38 20.38 0 0 1 4.15-3.68 19.12 19.12 0 0 0 1.92-1.59 4.64 4.64 0 0 0 .7-.82c.08-.17.23-.47.24-.53a5.47 5.47 0 0 0 .16-.58 6.91 6.91 0 0 0-.84-4.86h.06a32.43 32.43 0 0 0 3.49-4.46 5.52 5.52 0 0 0 1-4.74c-.86-3.66-1.94-7.42-2.67-11.22-.19-1-.38-1.86-.52-2.9a4.5 4.5 0 0 1 .74-3.56 5.88 5.88 0 0 1 3.06-1.56 10 10 0 0 0 2.47-.91 6.1 6.1 0 0 0 2.76-4 7.66 7.66 0 0 0-.19-5.13 18.54 18.54 0 0 0-2.8-4.73 40.52 40.52 0 0 0-3.78-4.26c-2.69-2.7-5.63-5.08-8.45-7.7a9.83 9.83 0 0 1-2.06-2.14 6.93 6.93 0 0 1-.81-2.75 13.87 13.87 0 0 1 1.37-5.85c.37-.89.8-1.76 1.26-2.62a8.92 8.92 0 0 0 1.19-2.49 3.57 3.57 0 0 0-.35-2.44 4.25 4.25 0 0 0-1.79-1.7l-.34-.21v-.87c.32-1.76.72-3.51.95-5.28s.46-3.55.64-5.32.26-3.57.26-5.35 0-3.57-.1-5.36a77 77 0 0 0-4.19-21l-.71-2.07 2.42.91c.43.36 1.61.1 2.66-.52a20.77 20.77 0 0 0 3.1-2.23c.5-.42 1-.86 1.46-1.32l.7-.69a.32.32 0 0 0 .12-.17 1.14 1.14 0 0 0 .12-.26 12.79 12.79 0 0 0 .61-3.56 16.56 16.56 0 0 0-1-7.28c-.12-.19-.26-.45-.36-.57a.71.71 0 0 0-.34-.33l-.22-.14-.11-.07-.43-.22c-.37-.18-.67-.36-1-.53-1.24-.71-2.39-1.44-3.56-2.18-9.22-5.91-18.37-11.74-27.86-17-2.38-1.34-4.72-2.6-7.15-3.87l-1.82-.94-.45-.24-.17-.09-.23-.1-.93-.41-3.7-1.66L258.5 21l-7.57-2.88c-5-2.06-10.23-3.41-15.35-5.07-2.6-.69-5.22-1.3-7.83-2-1.31-.31-2.6-.68-3.92-.93l-4-.71a160.47 160.47 0 0 0-15.93-2.16l-8-.41h-8c-2.67.09-5.33.33-8 .49s-5.3.63-7.94 1a122.42 122.42 0 0 0-15.56 3.56 108.08 108.08 0 0 0-14.82 5.62 55.83 55.83 0 0 0-12.49 9.06 122.12 122.12 0 0 0-10.93 11.67c-1.66 2.1-3.39 4.17-4.92 6.36-.8 1.08-1.52 2.2-2.22 3.31-.31.56-.72 1.13-1 1.67l-.43.83c-.09.23-.14.41-.24.64l-.47 1-.4.06a11 11 0 0 0-2.91.85 9.08 9.08 0 0 0-2 2.21 54.86 54.86 0 0 0-3.32 5.83c-2.06 4.05-4 8.21-5.83 12.4A86.41 86.41 0 0 0 87 99.35a132.94 132.94 0 0 0-.75 27.14c.31 4.54.8 9.07 1.47 13.55a50.74 50.74 0 0 0 1.28 6.54c.34 1.06.64 2.12 1 3.18l1.19 3.15a178.76 178.76 0 0 0 12.46 24.26c2.37 3.91 4.8 7.79 7.38 11.56s5.13 7.57 8.25 10.65a14.45 14.45 0 0 0 5.18 3.46c1 .37 2.08.59 3.32 1.09a15.93 15.93 0 0 1 3.2 1.84 57.77 57.77 0 0 1 5.49 4.41 27.9 27.9 0 0 1 2.55 2.51 7.68 7.68 0 0 1 1.31 3.62c.65 4.69.42 9.41.86 13.81s1.63 9 1.62 13.91a14.32 14.32 0 0 1-.61 4l-.15.4-.08.2v.1a1.08 1.08 0 0 1-.15.28c-.24.37-.51.73-.78 1.08a15.26 15.26 0 0 1-1.54 1.36 47.66 47.66 0 0 1-6.15 3.75c-4.12 2.21-8.33 4.06-12.47 6.06a125.25 125.25 0 0 0-12.11 6.31c-.51.31-.93.58-1.55.9a9.66 9.66 0 0 1-1.75.8 25.81 25.81 0 0 1-3.49 1c-2.3.59-4.55 1-6.78 1.54a77.54 77.54 0 0 0-25 9.86c-1.85 1.26-3.69 2.38-5.53 3.83-.88.68-1.92 1.41-2.67 2.06l-2.41 2.21c-.4.37-.82.71-1.19 1.11l-1.1 1.32-2.15 2.48c-1.25 1.83-2.63 3.54-3.74 5.46a101.49 101.49 0 0 0-10.48 24.62 167.65 167.65 0 0 0-5.46 26.41 71.43 71.43 0 0 1-.85 7.17 45 45 0 0 1-2.28 7 128.22 128.22 0 0 1-6.1 12.66C21.8 386.16 17 394 12 401.86c-1.58 3.14-3.24 6.14-4.8 9.27-.54 1.07-1.07 2.14-1.6 3.21h310.49c.33-2.18.69-4.37 1.17-6.54zM319.85 414.33v-.11.11z"/><path class="cls-16" d="M317.34 408.26a.38.38 0 0 1 0 .09l2.46 5.87c-.07-2.11-.19-4.21-.42-6.33z"/><path class="cls-16" d="M319.38 407.52a.38.38 0 0 1 0-.1l-.9-5-1.18 5.39c-.48 2.17-.84 4.36-1.17 6.54h3.76v-.11l-2.46-5.87a.38.38 0 0 0 0-.09l2.08-.37c.24 2.12.36 4.22.42 6.33v.11h2.33zM313.11 51.5H313.26zM403.29 414.33l.32-.61-1.6.22.23.39h1zM309.18 112.62v-.05l.09-.46-.44-.51zM108.09 50l-.7.12c0 .31-.09.63-.12.92zM305 70.32h.07a3.28 3.28 0 0 0 2.27.71c-.2-.64-.41-1.28-.62-1.92z"/><path class="cls-16" d="M7.2 411.13c1.56-3.13 3.22-6.13 4.8-9.27 5-7.86 9.8-15.7 14.24-23.86a128.22 128.22 0 0 0 6.1-12.66 45 45 0 0 0 2.28-7 71.43 71.43 0 0 0 .85-7.17 167.65 167.65 0 0 1 5.46-26.41 101.49 101.49 0 0 1 10.48-24.62c1.12-1.92 2.5-3.64 3.74-5.46l2.15-2.48 1.08-1.2c.37-.4.8-.74 1.19-1.11l2.43-2.25c.75-.65 1.79-1.37 2.67-2.06 1.84-1.46 3.67-2.57 5.53-3.83a77.54 77.54 0 0 1 25-9.86c2.23-.51 4.48-.94 6.78-1.54a25.81 25.81 0 0 0 3.49-1 9.66 9.66 0 0 0 1.75-.8c.62-.32 1-.59 1.55-.9a125.25 125.25 0 0 1 12.11-6.31c4.14-2 8.35-3.85 12.47-6.06a47.66 47.66 0 0 0 6.15-3.75 15.26 15.26 0 0 0 1.54-1.36c.27-.35.54-.71.78-1.08a1.08 1.08 0 0 0 .15-.28v-.1l.08-.2.15-.4a14.32 14.32 0 0 0 .61-4c0-4.93-1.1-9.43-1.62-13.91s-.21-9.13-.86-13.81a7.68 7.68 0 0 0-1.31-3.62 27.9 27.9 0 0 0-2.55-2.51 57.77 57.77 0 0 0-5.49-4.41 15.93 15.93 0 0 0-3.2-1.84c-1.24-.49-2.36-.71-3.32-1.09a14.45 14.45 0 0 1-5.18-3.46c-3.12-3.08-5.62-6.9-8.25-10.65s-5-7.65-7.38-11.56a178.76 178.76 0 0 1-12.45-24.34l-1.2-3.15c-.36-1.06-.67-2.12-1-3.18a50.74 50.74 0 0 1-1.32-6.58c-.67-4.49-1.16-9-1.47-13.55a132.94 132.94 0 0 1 .79-27.1 86.41 86.41 0 0 1 7.46-25.9c1.86-4.19 3.77-8.34 5.83-12.4a54.86 54.86 0 0 1 3.32-5.83 9.08 9.08 0 0 1 2-2.21 11 11 0 0 1 2.91-.85l.4-.06.47-1c.1-.22.16-.4.24-.64l.43-.83c.26-.55.68-1.11 1-1.67.7-1.12 1.43-2.23 2.22-3.31 1.53-2.19 3.26-4.26 4.92-6.36a122.12 122.12 0 0 1 10.9-11.67 55.83 55.83 0 0 1 12.49-9.06 108.08 108.08 0 0 1 14.82-5.62A122.42 122.42 0 0 1 172 8.37c2.64-.36 5.29-.7 7.94-1s5.32-.39 8-.49h8l8 .41a160.47 160.47 0 0 1 15.93 2.16l4 .71c1.32.26 2.61.63 3.92.93 2.61.66 5.23 1.26 7.83 2 5.12 1.66 10.35 3 15.35 5.07L258.5 21l7.4 3.32 3.7 1.66.93.41.23.1.17.09.45.24 1.82.94c2.43 1.27 4.77 2.53 7.15 3.87 9.49 5.28 18.64 11.12 27.86 17 1.17.73 2.32 1.46 3.56 2.18.31.18.61.36 1 .53l.43.22h-.05l.15.08h-.1l.11.07.22.14a.71.71 0 0 1 .34.33c.09.12.23.39.36.57a16.56 16.56 0 0 1 1 7.28 12.79 12.79 0 0 1-.61 3.56 1.14 1.14 0 0 1-.12.26.32.32 0 0 1-.12.17l-.7.69c-.47.45-1 .89-1.46 1.32a20.77 20.77 0 0 1-3.1 2.23c-1.05.62-2.22.88-2.66.52l-2.42-.91.71 2.07a77 77 0 0 1 4.19 21c.09 1.78.15 3.57.1 5.36s-.14 3.57-.26 5.35-.35 3.56-.64 5.32-.63 3.52-.95 5.28v.75l.34.21a4.25 4.25 0 0 1 1.79 1.7 3.57 3.57 0 0 1 .35 2.44 8.92 8.92 0 0 1-1.19 2.49c-.46.86-.89 1.73-1.26 2.62a13.87 13.87 0 0 0-1.37 5.85 6.93 6.93 0 0 0 .81 2.75 9.83 9.83 0 0 0 2.06 2.14c2.82 2.62 5.76 5 8.45 7.7a40.52 40.52 0 0 1 3.79 4.22 18.54 18.54 0 0 1 2.8 4.73 7.66 7.66 0 0 1 .19 5.13 6.1 6.1 0 0 1-2.76 4 10 10 0 0 1-2.47.91 5.88 5.88 0 0 0-3.06 1.56 4.5 4.5 0 0 0-.74 3.56c.14 1 .34 1.92.52 2.9.72 3.8 1.81 7.56 2.67 11.22a5.52 5.52 0 0 1-1 4.74 32.43 32.43 0 0 1-3.49 4.46h-.06a6.91 6.91 0 0 1 .84 4.86 5.47 5.47 0 0 1-.16.58c0 .06-.17.36-.24.53a4.64 4.64 0 0 1-.7.82 19.12 19.12 0 0 1-1.92 1.59 20.38 20.38 0 0 0-4.15 3.68 7.44 7.44 0 0 0-1.44 2.82 8.67 8.67 0 0 0-.12 3.1c.4 3.89 2 7.21 2.05 10.12a6.42 6.42 0 0 1-.28 2 12.47 12.47 0 0 1-.94 2.12 11.14 11.14 0 0 1-2.86 3.36 22.39 22.39 0 0 1-8.79 3.87c-3.3.78-6.72 1.19-10.23 1.7s-7 1.22-10.47 2a62.85 62.85 0 0 0-10.31 3 11.85 11.85 0 0 0-2.6 1.35c-1.06.92-1.33 1.44-2 1.93a40.81 40.81 0 0 0-4.1 3.55 5.57 5.57 0 0 0-1.49 3.15 4.36 4.36 0 0 0 .28 1.94 4.47 4.47 0 0 0 .46.92l.39.53a32.87 32.87 0 0 0 4.05 3.94A170.07 170.07 0 0 0 276 264.37c1.5 1 3 1.89 4.61 2.76a23.39 23.39 0 0 0 5.21 2.28c3.51.88 6.94 1.51 10.37 2.25 6.79 1.48 13.74 2.9 19.87 5.54a81.46 81.46 0 0 1 17.4 10.83 95.48 95.48 0 0 1 14.52 14.57 111.2 111.2 0 0 1 11.44 17.2c.88 1.49 1.65 3 2.39 4.59s1.54 3.1 2.26 4.67c1.32 3.21 2.77 6.32 4 9.62 2.56 6.56 5 13.07 7.12 19.68.5 1.65 1 3.29 1.41 4.92.19.81.38 1.62.5 2.4a24.33 24.33 0 0 1 .26 2.49 9.09 9.09 0 0 0 1 3.21c.42.9.86 1.64 1.29 2.45.9 1.56 1.69 3 2.54 4.6 3.34 6.18 6.68 12.35 10.16 18.45q4.78 8.56 9.8 17l1.28.39h1.42l-.06-.12q-4.46-9.56-9.21-19c-3.1-6.31-6.34-12.54-9.59-18.77-.79-1.53-1.64-3.17-2.46-4.67s-1.67-3.12-1.7-4c-.06-.68-.13-1.84-.3-2.75s-.37-1.86-.59-2.75c-.45-1.78-1-3.48-1.5-5.2-2.21-6.75-4.71-13.4-7.28-19.91-1.23-3.29-2.75-6.56-4.11-9.83-.75-1.61-1.57-3.2-2.35-4.8s-1.58-3.2-2.49-4.73A115.47 115.47 0 0 0 351.13 300a90.56 90.56 0 0 0-33.64-26.28 67.12 67.12 0 0 0-10.33-3.28c-3.46-.85-6.92-1.57-10.38-2.25s-6.93-1.3-10.25-2.08a20.24 20.24 0 0 1-4.42-1.9c-1.5-.8-3-1.69-4.46-2.6a167.1 167.1 0 0 1-17-12.1 34.48 34.48 0 0 1-3.57-3.31l-.39-.53c0 .08-.07-.19-.12-.26a1.34 1.34 0 0 1-.11-.63 2.8 2.8 0 0 1 .73-1.52c.94-1.15 2.29-2.28 3.6-3.61.69-.66 1.34-1.69 1.65-1.88a9.58 9.58 0 0 1 2-1.1 60.9 60.9 0 0 1 10-2.6c3.4-.67 6.88-1.12 10.31-1.48a100.39 100.39 0 0 0 10.62-1.29 23.77 23.77 0 0 0 10.41-4.33 13.7 13.7 0 0 0 3.86-4.64 8 8 0 0 0 .61-1.3l.25-.61.12-.31a3.81 3.81 0 0 0 .15-.48 9.19 9.19 0 0 0 .38-3.18c-.31-4.17-2.12-7.28-2.64-10.37a6 6 0 0 1-.12-2.13 4.68 4.68 0 0 1 .75-1.92 22.7 22.7 0 0 1 3.32-3.7 16.78 16.78 0 0 0 1.86-2.06 5.81 5.81 0 0 0 .75-1.37 7.23 7.23 0 0 0 .18-.72 6.61 6.61 0 0 0 .07-.72 6.88 6.88 0 0 0-1.86-5v-.05a15.22 15.22 0 0 0 4.67-3.63 8.59 8.59 0 0 0 1.61-2.71c.09-.27.16-.59.22-.89a7.5 7.5 0 0 0 .08-.75 7.85 7.85 0 0 0-.19-1.67c-.79-3.85-1.72-7.52-2.49-11.26-.33-1.81-.94-4-.3-4.7a4.27 4.27 0 0 1 2-1 11.82 11.82 0 0 0 2.89-1.16 8 8 0 0 0 3.55-5.25 9.8 9.8 0 0 0 .33-3.12 11 11 0 0 0-.73-3.05 18.14 18.14 0 0 0-3.22-5.05 41.83 41.83 0 0 0-4.12-4.15c-2.9-2.59-6.07-4.78-9.08-7.17a7.93 7.93 0 0 1-2-2.07 5.94 5.94 0 0 1-.83-2.72 11 11 0 0 1 1.36-5.51 18 18 0 0 1 1.47-2.45 12.06 12.06 0 0 0 1.61-2.52 5.29 5.29 0 0 0 .13-3.22 6 6 0 0 0-1.29-2.27l-.09.46v.05l-.34-1 .44.51c.31-1.65.67-3.28.88-4.95s.48-3.64.66-5.46.26-3.66.27-5.5 0-3.67-.1-5.51a78.14 78.14 0 0 0-3.67-19.61 3.28 3.28 0 0 1-2.27-.71h-.07l1.71-1.17c.22.64.42 1.28.62 1.92a4.6 4.6 0 0 0 .52 0 7.71 7.71 0 0 0 2.28-.73 19.16 19.16 0 0 0 3.67-2.35q.84-.66 1.63-1.37l.78-.72a4.06 4.06 0 0 0 .51-.63 3.25 3.25 0 0 0 .34-.65 15 15 0 0 0 1-4.44 26.16 26.16 0 0 0 0-4.35 13.75 13.75 0 0 0-1-4.49 10 10 0 0 0-.69-1.18 5.18 5.18 0 0 0-.98-1.21l-.23-.1-.11-.07h-.05l-.26-.14-.38-.2c-.25-.12-.53-.3-.81-.47-1.11-.67-2.25-1.43-3.38-2.17-9-6.08-18.17-12.19-27.65-17.75a254.33 254.33 0 0 0-7.17-4.09l-1.79-1-.4-.27-.28-.15-.23-.11-.98-.48-3.73-1.77-7.47-3.55-7.67-3.11c-5.06-2.21-10.4-3.73-15.62-5.54-2.65-.78-5.35-1.43-8-2.15-1.34-.34-2.67-.74-4-1l-4.08-.8a166 166 0 0 0-16.47-2.49L196.08 1c-2.78-.06-5.57 0-8.36 0s-5.57.33-8.35.49-5.55.65-8.31 1a128.34 128.34 0 0 0-16.35 3.7 98.31 98.31 0 0 0-15.74 6 53.89 53.89 0 0 0-13.63 10.48 94.84 94.84 0 0 0-10.56 13 83.4 83.4 0 0 0-4.33 7.15c-.68 1.22-1.29 2.48-1.89 3.76a21.25 21.25 0 0 0-.79 2l-.34 1.07c0 .14-.05.29-.07.44l.7-.12-.87 1.06c0-.3.07-.62.12-.92l-1 .17a5.56 5.56 0 0 0-2 .66 11 11 0 0 0-2.8 2.71 57.15 57.15 0 0 0-3.85 5.95c-2.26 4.12-4.31 8.28-6.33 12.4a85.87 85.87 0 0 0-8.2 26.79 133.39 133.39 0 0 0-.73 27.94q.5 7 1.55 13.87a54.8 54.8 0 0 0 1.44 7c.36 1.13.7 2.28 1.08 3.4l1.26 3.3a172.52 172.52 0 0 0 13.07 24.62c2.46 3.92 5 7.8 7.66 11.59 1.34 1.89 2.7 3.77 4.12 5.62a43.23 43.23 0 0 0 4.7 5.36 16.61 16.61 0 0 0 6.3 4c1.21.38 2.37.56 3.29.88a18.58 18.58 0 0 1 2.9 1.36 45.33 45.33 0 0 1 5.63 3.74 17.59 17.59 0 0 1 2.43 2.26 5.75 5.75 0 0 1 .89 2.83 45.15 45.15 0 0 1 .14 6.77c-.08 2.3-.32 4.54-.25 7 .16 4.7.75 9.3.54 13.59a11.92 11.92 0 0 1-.45 2.76l-.17.4-.08.2v.1c.11-.26 0-.05 0-.1a1.34 1.34 0 0 0-.24.31 12.51 12.51 0 0 1-1 .91 44.65 44.65 0 0 1-5.62 3.43c-4 2.15-8.08 4.25-12.17 6.38s-8.19 4.32-12.19 6.75c-3.48 2.41-8.1 2.78-12.64 3.74A90.44 90.44 0 0 0 81 272.4a83.33 83.33 0 0 0-12.81 5.94c-2 1.24-4.15 2.45-6 3.78-1 .69-1.85 1.23-2.88 2l-2.79 2.33c-.46.4-.95.77-1.38 1.19L53.87 289l-2.48 2.63c-1.43 1.91-3 3.73-4.3 5.74a106.1 106.1 0 0 0-12 25.61 151.39 151.39 0 0 0-6 27.52c-.32 2.46-.35 4.87-.71 6.53a56.22 56.22 0 0 1-1.81 6.18c-1.48 4.2-3.07 8.47-4.83 12.68a227.46 227.46 0 0 1-11.65 24.85v.07c-1.52 3.16-3 6.34-4.54 9.48q-1 2-2 4.05H5.6c.53-1.08 1.06-2.15 1.6-3.21zM313.46 188.43v.05z"/></svg>