<svg id="circle-4-svg" data-name="Layer 1" xmlns="http://www.w3.org/2000/svg" viewBox="0 0 24 24"><defs><style>.cls-1{fill:#332e77}.cls-2,.cls-3{fill:#fff}.cls-2{opacity:.3}</style></defs><title>thyroid_build Pieces_onBorads</title><circle class="cls-1" cx="12" cy="12" r="12"/><path class="cls-2" d="M12 0a11.94 11.94 0 0 0-6.72 2.06c-1.34 3.38.35 8.55 4.46 12.66 3.67 3.67 8.19 5.43 11.53 4.82A11.94 11.94 0 0 0 12 0z"/><path class="cls-3" d="M15 13.14h2v1.54a.54.54 0 0 1-.14.37.53.53 0 0 1-.41.16H15V19h-2.38v-3.79H6a.75.75 0 0 1-.73-.58L5 13.28l7.39-9.87H15v9.73zM12.62 8v-.75c0-.27 0-.54.08-.83l-4.83 6.72h4.75V8z"/></svg>