<svg id="circle-radioactive-svg" data-name="Layer 1" xmlns="http://www.w3.org/2000/svg" viewBox="0 0 24 24"><defs><style>.cls-1{fill:#ca2027}.cls-2{fill:#fff;opacity:.3}.cls-3{fill:#fff100}.cls-4{fill:#231f20}</style></defs><title>thyroid_build Pieces_onBorads</title><circle class="cls-1" cx="12" cy="12" r="12" transform="rotate(-26.94 12.005 11.991)"/><path class="cls-2" d="M12 0a11.94 11.94 0 0 0-6.72 2.06c-1.34 3.38.35 8.55 4.46 12.66 3.67 3.67 8.19 5.43 11.53 4.82A11.94 11.94 0 0 0 12 0z"/><circle class="cls-3" cx="12" cy="12" r="9.17" transform="rotate(-26.94 12.005 11.991)"/><path class="cls-4" d="M9.29 11.66a2.75 2.75 0 0 1 1.44-2.27L8.61 5.16a7.57 7.57 0 0 0-4.14 7.24l4.84-.31a2.78 2.78 0 0 1-.02-.43zM14.78 11.95v.12l4.83.26a7.58 7.58 0 0 0-4.18-7.18l-2.14 4.21a2.75 2.75 0 0 1 1.49 2.59zM13.49 14.13a2.75 2.75 0 0 1-2.91 0l-2.67 4.15a7.58 7.58 0 0 0 8.33-.06z"/><circle class="cls-4" cx="12.01" cy="11.81" r="2.01"/></svg>