<svg id="circle-1-svg" data-name="Layer 1" xmlns="http://www.w3.org/2000/svg" viewBox="0 0 24 24"><defs><style>.cls-1{fill:#332e77}.cls-2,.cls-3{fill:#fff}.cls-2{opacity:.3}</style></defs><title>thyroid_build Pieces_onBorads</title><circle class="cls-1" cx="12" cy="12" r="12"/><path class="cls-2" d="M12 0a11.94 11.94 0 0 0-6.72 2.06c-1.34 3.38.35 8.55 4.46 12.66 3.67 3.67 8.19 5.43 11.53 4.82A11.94 11.94 0 0 0 12 0z"/><path class="cls-3" d="M7.69 17h3.16V7.93 6.82L8.64 8.7a.82.82 0 0 1-.29.16 1 1 0 0 1-.29 0 .84.84 0 0 1-.39-.09.68.68 0 0 1-.26-.17l-.84-1.16 4.76-4h2.19V17h2.81v2H7.69v-2z"/></svg>