<svg id="circle-ki-svg" data-name="Layer 1" xmlns="http://www.w3.org/2000/svg" viewBox="0 0 24 24"><defs><style>.circle-ki-cls-1{fill:#332e77}.circle-ki-cls-2,.circle-ki-cls-3{fill:#fff}.circle-ki-cls-2{opacity:.3}</style></defs><title>thyroid_build Pieces_onBorads</title><circle class="circle-ki-cls-1" cx="12" cy="12" r="12"/><path class="circle-ki-cls-2" d="M12 0a11.94 11.94 0 0 0-6.72 2.06c-1.33 3.38.35 8.55 4.46 12.66 3.67 3.67 8.19 5.43 11.53 4.82A11.94 11.94 0 0 0 12 0z"/><path class="circle-ki-cls-3" d="M11.35 12.12a2.23 2.23 0 0 0-.61-.34 2.63 2.63 0 0 0 .44-.31 2.56 2.56 0 0 0 .43-.47l3.76-5.27h-2.56a1.91 1.91 0 0 0-.74.13 1.24 1.24 0 0 0-.54.47l-2.85 4.25a1.06 1.06 0 0 1-.94.42h-.47V5.71H4.33v13h2.94v-5.5H8a1.67 1.67 0 0 1 .65.1.87.87 0 0 1 .4.35l2.87 4.54a1.72 1.72 0 0 0 .18.24.89.89 0 0 0 .23.17 1.08 1.08 0 0 0 .31.11 2.22 2.22 0 0 0 .43 0h2.63l-3.83-6.05a2.26 2.26 0 0 0-.52-.55zm5.24-6.41v13h3v-13h-3z"/></svg>