<svg id="circle-3-svg" data-name="Layer 1" xmlns="http://www.w3.org/2000/svg" viewBox="0 0 24 24"><defs><style>.cls-1{fill:#332e77}.cls-2,.cls-3{fill:#fff}.cls-2{opacity:.3}</style></defs><title>thyroid_build Pieces_onBorads</title><circle class="cls-1" cx="12" cy="12" r="12"/><path class="cls-2" d="M12 0a11.94 11.94 0 0 0-6.72 2.06c-1.34 3.38.35 8.55 4.46 12.66 3.67 3.67 8.19 5.43 11.53 4.82A11.94 11.94 0 0 0 12 0z"/><path class="cls-3" d="M12.28 3.25a5.72 5.72 0 0 1 1.95.31 4.42 4.42 0 0 1 1.49.85 3.77 3.77 0 0 1 .94 1.28A3.83 3.83 0 0 1 17 7.27a4.67 4.67 0 0 1-.17 1.31 3 3 0 0 1-.48 1 2.91 2.91 0 0 1-.78.71 4.77 4.77 0 0 1-1 .48 4.06 4.06 0 0 1 2.09 1.35 3.64 3.64 0 0 1 .69 2.28 4.71 4.71 0 0 1-.43 2.06A4.43 4.43 0 0 1 15.71 18a5.07 5.07 0 0 1-1.7.92 6.62 6.62 0 0 1-2 .31 7 7 0 0 1-2.05-.27 4.43 4.43 0 0 1-1.52-.8 4.81 4.81 0 0 1-1.1-1.29 8.8 8.8 0 0 1-.78-1.77l1.18-.48a1.52 1.52 0 0 1 .62-.13 1.06 1.06 0 0 1 .5.12.8.8 0 0 1 .34.35c.13.25.27.5.43.75a3 3 0 0 0 .56.65 2.66 2.66 0 0 0 .76.46 2.76 2.76 0 0 0 1 .18 3 3 0 0 0 1.19-.22 2.56 2.56 0 0 0 .86-.63 2.36 2.36 0 0 0 .51-.79 2.45 2.45 0 0 0 .17-.88 4 4 0 0 0-.12-1 1.51 1.51 0 0 0-.5-.79 2.74 2.74 0 0 0-1.08-.51A7.78 7.78 0 0 0 11 12v-1.92a6.41 6.41 0 0 0 1.63-.17 2.73 2.73 0 0 0 1-.48 1.64 1.64 0 0 0 .53-.74 2.88 2.88 0 0 0 .15-.95 2.19 2.19 0 0 0-.61-1.68 2.31 2.31 0 0 0-1.65-.57 2.44 2.44 0 0 0-1.58.5 2.62 2.62 0 0 0-.87 1.29 1.18 1.18 0 0 1-.36.59.94.94 0 0 1-.51.13 2 2 0 0 1-.37 0L7 7.77a5.82 5.82 0 0 1 .63-2 4.69 4.69 0 0 1 1.12-1.38 4.8 4.8 0 0 1 1.6-.85 6.41 6.41 0 0 1 1.93-.29z"/></svg>