<svg id="circle-2-svg" data-name="Layer 1" xmlns="http://www.w3.org/2000/svg" viewBox="0 0 24 24"><defs><style>.cls-1{fill:#332e77}.cls-2,.cls-3{fill:#fff}.cls-2{opacity:.3}</style></defs><title>thyroid_build Pieces_onBorads</title><circle class="cls-1" cx="12" cy="12" r="12"/><path class="cls-2" d="M12 0a11.94 11.94 0 0 0-6.72 2.06c-1.34 3.38.35 8.55 4.46 12.66 3.67 3.67 8.19 5.43 11.53 4.82A11.94 11.94 0 0 0 12 0z"/><path class="cls-3" d="M12 3.25a5.85 5.85 0 0 1 2 .32 4.45 4.45 0 0 1 1.53.9 4.07 4.07 0 0 1 1 1.4 4.5 4.5 0 0 1 .36 1.82 4.88 4.88 0 0 1-.25 1.6 6.74 6.74 0 0 1-.68 1.4A9.15 9.15 0 0 1 15 12c-.38.42-.78.84-1.2 1.27l-3.52 3.59a8.89 8.89 0 0 1 1-.23 5.81 5.81 0 0 1 .95-.08h4a1 1 0 0 1 .68.24.85.85 0 0 1 .25.64V19H6.45v-.86a1.54 1.54 0 0 1 .11-.56 1.57 1.57 0 0 1 .36-.58l4.74-4.75c.4-.4.75-.79 1.06-1.15a7.89 7.89 0 0 0 .79-1.1A5 5 0 0 0 14 8.95a4 4 0 0 0 .17-1.17 2.76 2.76 0 0 0-.16-1 1.89 1.89 0 0 0-1.18-1.15 2.82 2.82 0 0 0-.93-.15 2.47 2.47 0 0 0-1.6.52 2.53 2.53 0 0 0-.87 1.31 1.09 1.09 0 0 1-.36.59 1 1 0 0 1-.6.18 2.23 2.23 0 0 1-.36 0l-1.4-.25a5.79 5.79 0 0 1 .63-2A4.73 4.73 0 0 1 8.5 4.38a4.84 4.84 0 0 1 1.6-.85 6.41 6.41 0 0 1 1.9-.28z"/></svg>