<svg id="thyroid-svg" data-name="Layer 1" xmlns="http://www.w3.org/2000/svg" viewBox="0 0 42.68 82"><defs><style>.thyroid-cls-1{fill:none}.thyroid-cls-2{fill:#eeedec}.thyroid-cls-3{clip-path:url(#clip-path)}.thyroid-cls-4{fill:#c0c0ca}.thyroid-cls-5{fill:#bcb3c2}.thyroid-cls-6{fill:#2a0f13}.thyroid-cls-7{fill:#d0877e}.thyroid-cls-8{clip-path:url(#clip-path-2)}.thyroid-cls-9{fill:#ad6e61}.thyroid-cls-10{fill:#f7dfbd}</style><clipPath id="clip-path"><path class="thyroid-cls-1" d="M35.43 10c0-1.06-.11-4.24 0-6.07a6.22 6.22 0 0 0-.34-2.79l-.67-.87-8.77 3.86s-7.87.1-9.78-.48-5.51-1.93-5.51-1.93L9.34 1c1 1.64-.45 5.1-.79 7.12s-1.46 4.33.56 7.51 1.89 4.87 3.72 5.74a5.86 5.86 0 0 0 1.33.54l-.2.71c-.34 1.16-.56 1.06-.11 2.21s-.22 2.41.34 2.6l.77.23-.88 1.5a8.9 8.9 0 0 0-.56 1.73 17.5 17.5 0 0 0 .22 3.27A2.62 2.62 0 0 0 15 35.23l-.9 1.54a8.9 8.9 0 0 0-.56 1.73 17.5 17.5 0 0 0 .22 3.27 2.65 2.65 0 0 0 1.52 1.12v1.94l-1.14 1.95a8.9 8.9 0 0 0-.56 1.73 17.5 17.5 0 0 0 .22 3.27 2.65 2.65 0 0 0 1.53 1.12l-1.2 1.87a7.64 7.64 0 0 0-.56 1.58 14.66 14.66 0 0 0 .22 3 2.73 2.73 0 0 0 1.09.89l-.75 1.17A7.64 7.64 0 0 0 13.5 63a14.66 14.66 0 0 0 .22 3A2.57 2.57 0 0 0 15 67l-.94 1.47A7.64 7.64 0 0 0 13.5 70a14.66 14.66 0 0 0 .22 3A2.57 2.57 0 0 0 15 74l-.94 1.47a7.64 7.64 0 0 0-.56 1.58 14.66 14.66 0 0 0 .22 3 2.56 2.56 0 0 0 2.14 1.14c1.46.09 4.95.35 6.07.35s3.94.62 5.51-.26 2.81-1.14 3.15-1.76a8.21 8.21 0 0 0 .11-3.35c-.11-.88.11-1.06-.34-1.32s-1.62-1.18-1.68-1.22a4.3 4.3 0 0 0 1.9-1.14 8.21 8.21 0 0 0 .11-3.35c-.11-.88.11-1.06-.34-1.32s-1.62-1.18-1.68-1.22a4.3 4.3 0 0 0 1.9-1.14 8.21 8.21 0 0 0 .11-3.35c-.11-.88.11-1.06-.34-1.32s-1-.68-1.36-1a3.43 3.43 0 0 0 1.59-1 8.21 8.21 0 0 0 .11-3.35c-.11-.88.11-1.06-.34-1.32s-1.69-1.23-1.69-1.23h-.91c1.41-.81 2.51-1.12 2.83-1.75a9.8 9.8 0 0 0 .11-3.66c-.11-1 .11-1.16-.34-1.44S29 45 28.75 44.82l.6-2.7a2.64 2.64 0 0 0 1.25-.92 9.8 9.8 0 0 0 .11-3.66c-.11-1 .11-1.16-.34-1.44S29 35 28.75 34.81a4.09 4.09 0 0 0 1.84-1.22 9.8 9.8 0 0 0 .11-3.66c-.11-1 .11-1.16-.34-1.44l-.36-.3a1.4 1.4 0 0 0 1-.76 12.91 12.91 0 0 0-.11-3.56c-.11-1.06-.45-.87.22-1.64a2.35 2.35 0 0 0 .4-1.29 3.69 3.69 0 0 0 1.85-1.79c.34-1.16.34-3 1.24-4.81a8.58 8.58 0 0 0 .83-4.34z"/></clipPath><clipPath id="clip-path-2"><path class="thyroid-cls-1" d="M8.33 22.64c-1.8.48-1.46 1.14-2.47 1.62a5.23 5.23 0 0 0-1.8 1.81 7.09 7.09 0 0 0-.67 2.76c.11 1-2.36 1.71-2.92 4.67a17.33 17.33 0 0 0 0 7A29.43 29.43 0 0 0 3 45.3c1.12 1.81 1.24 3.9 2.81 4.48s1.57 1.62 3.49 1.43a11 11 0 0 0 5.62-3c1-1.14 1.46-3 3.6-3.33s4.61-.67 5.4 0 2.59 2.09 3 3.33a6.37 6.37 0 0 0 3.26 3c.9.19 1.35.86 2.92.19a9.78 9.78 0 0 0 2.92-1.52A24.79 24.79 0 0 0 38.69 46l2.36-5a33.5 33.5 0 0 0 .56-4.48c0-1.52.67-2.48.79-4a7.44 7.44 0 0 0-.34-4.29c-.79-2.57-2.81-5-3.26-5.9s-1.57-1.24-3.26-.19-3.82 1.86-3.82 3.35-1.12 4-1.46 4.86a13.42 13.42 0 0 1-1.46 3c-.79 1.14-.67 2.38-1.69 2.38s-.22-1.43-2.47-.67a5.65 5.65 0 0 0-3.37 2.29c-.67.86-.56 2.48-2.36 1.14s-3-2.19-3.94-4.19-.9-4-2.25-5.33 1-1.43.34-3 .34-1-1.46-2.09a7.66 7.66 0 0 0-3.27-1.24z"/></clipPath></defs><title>thyroid_build Pieces_onBorads</title><path class="thyroid-cls-2" d="M35.43 10c0-1.06-.11-4.24 0-6.07a6.22 6.22 0 0 0-.34-2.79l-.67-.87-8.77 3.86s-7.87.1-9.78-.48-5.51-1.93-5.51-1.93L9.34 1c1 1.64-.45 5.1-.79 7.12s-1.46 4.33.56 7.51 1.89 4.87 3.72 5.74a5.86 5.86 0 0 0 1.33.54l-.2.71c-.34 1.16-.56 1.06-.11 2.21s-.22 2.41.34 2.6l.77.23-.88 1.5a8.9 8.9 0 0 0-.56 1.73 17.5 17.5 0 0 0 .22 3.27A2.62 2.62 0 0 0 15 35.23l-.9 1.54a8.9 8.9 0 0 0-.56 1.73 17.5 17.5 0 0 0 .22 3.27 2.53 2.53 0 0 0 2.1 1.23c1.46.1 4.95.39 6.07.39s3.94.67 5.51-.29 2.81-1.25 3.15-1.93a9.8 9.8 0 0 0 .11-3.66c-.11-1 .11-1.16-.34-1.44S29 35 28.75 34.81a4.09 4.09 0 0 0 1.84-1.22 9.8 9.8 0 0 0 .11-3.66c-.11-1 .11-1.16-.34-1.44l-.36-.3a1.4 1.4 0 0 0 1-.76 12.91 12.91 0 0 0-.11-3.56c-.11-1.06-.45-.87.22-1.64a2.35 2.35 0 0 0 .4-1.29 3.69 3.69 0 0 0 1.85-1.79c.34-1.16.34-3 1.24-4.81a8.58 8.58 0 0 0 .83-4.34zM30.59 51.21a9.8 9.8 0 0 0 .11-3.66c-.11-1 .11-1.16-.34-1.44s-1.69-1.35-1.69-1.35l-7.2.19-6.18-.29-1.24 2.12a8.9 8.9 0 0 0-.56 1.73 17.5 17.5 0 0 0 .22 3.27 2.65 2.65 0 0 0 1.53 1.12l-1.2 1.87a7.64 7.64 0 0 0-.56 1.58 14.66 14.66 0 0 0 .22 3 2.73 2.73 0 0 0 1.09.89l-.75 1.17A7.64 7.64 0 0 0 13.5 63a14.66 14.66 0 0 0 .22 3A2.57 2.57 0 0 0 15 67l-.94 1.47A7.64 7.64 0 0 0 13.5 70a14.66 14.66 0 0 0 .22 3A2.57 2.57 0 0 0 15 74l-.94 1.47a7.64 7.64 0 0 0-.56 1.58 14.66 14.66 0 0 0 .22 3 2.56 2.56 0 0 0 2.14 1.14c1.46.09 4.95.35 6.07.35s3.94.62 5.51-.26 2.81-1.14 3.15-1.76a8.21 8.21 0 0 0 .11-3.35c-.11-.88.11-1.06-.34-1.32s-1.62-1.18-1.68-1.22a4.3 4.3 0 0 0 1.9-1.14 8.21 8.21 0 0 0 .11-3.35c-.11-.88.11-1.06-.34-1.32s-1.62-1.18-1.68-1.22a4.3 4.3 0 0 0 1.9-1.14 8.21 8.21 0 0 0 .11-3.35c-.11-.88.11-1.06-.34-1.32s-1-.68-1.36-1a3.43 3.43 0 0 0 1.59-1 8.21 8.21 0 0 0 .11-3.35c-.11-.88.11-1.06-.34-1.32s-1.69-1.23-1.69-1.23h-.91c1.44-.74 2.54-1.05 2.85-1.68z"/><g class="thyroid-cls-3"><path class="thyroid-cls-4" d="M26.88 17.52l2.59.58.79.9L29 21a8.17 8.17 0 0 1-2-.1 14.66 14.66 0 0 0-4 .29c-1.12.19-2 .19-2.25 1.06s1.12 3.37 1.12 3.37a15.2 15.2 0 0 1 .13 1.81 28.28 28.28 0 0 1 .11 3.27 20.61 20.61 0 0 0 .22 3.47c.11 1.44.22 2.31.22 3.37s.79-.48.79 1.73 1.8 3.08 1.91 3.75.22.39-.45 3.18-.9.77-1.24 2.6-.11 1.06-.11 3.08a16.19 16.19 0 0 0 .55 3.76 11.93 11.93 0 0 1 0 3.47c-.11 1.54-.45-.19-.45 2.79s-.56 2.41-.9 3.56-.56.29-.34 1.83.56 1.54.67 2.41.45.87.11 2.21a6.69 6.69 0 0 0-.37 2.09c0 .58.56.29.56 1.64s1-.1.22 3.27.79 4.91.79 4.91l-6.63 1.44s-3.15-9.44-2.59-12.9.79-19.36.79-19.36L15 46l-1-17.7 1.75-7.3-.34-1.54 7.65-1.73s1.46-1.06 2.25-.77z"/><path class="thyroid-cls-5" d="M15.75 2l-.9 3.47s-.45 3.37-.45 4.91.79 1.54.22 3.37-1.12 2.21-.9 3 2 1.44 2.25 1.83 1.12 2.12 1.12 2.12l1.8-.19s-2.59 1.16-2.81 2 1.35 1.93 1.35 1.93L17 25.8l-.11 1.83 1.69 1.06a3.4 3.4 0 0 0-1.24 1.16c0 .39-.56 3.47-.22 4.53a4.42 4.42 0 0 1-.56 2.7l.22 5.87-.22 1.64.44 3.25s.22 3.95.34 4.62a9.07 9.07 0 0 1-.56 2.7 31.69 31.69 0 0 0 .79 4.33c.11.48-.67 1.93-.9 2.5s.56 4 .79 4.62-.46 5.11-.46 5.11a9.11 9.11 0 0 0 .45 1.83 10 10 0 0 1 .11 2.5 11.51 11.51 0 0 0 .79 5 3.33 3.33 0 0 1-.79 3.75l-14.4-2.39-4.61-67.11L-.1-1.64l11.8-1.93zM28.68.48c1.69 2.4 2.25 7.52 2.25 9.14a56 56 0 0 1-1.12 6.74s-1 3.47-1.24 3.85a1.69 1.69 0 0 0-.22.77 23.26 23.26 0 0 1 .11 4.33c-.23 1.26-.46 3.47-.46 3.47l1.24.1-.56 3.95a6 6 0 0 1-.68 1.44c-.45.67-.22 1 .11 1.73s.67.67.67 1.64.22 2.89-.45 4-.79 1.06-.22 1.73a2.86 2.86 0 0 1 .34 2.7 4 4 0 0 0 0 2.31 3.1 3.1 0 0 1 .22 2.21c-.22 1.83-.34 3.08-.34 3.66s.22 1.35.34 2.41-.11 2.1 0 2.88-.79 2.8-.34 3.28a3.1 3.1 0 0 1 1 3c-.45 1.35-1.8 3.08-1.35 3.47s.22 4.14.22 4.14l.45.18s-.56.3-.56 1.64.79 1.06.79 1.83-.56 3.75-.56 4.33S29.7 83 29.7 83l4.39-4.53s.55-55.18 1.68-57.47 4.84-9.34 5.85-13.58.45-12.61.45-12.61l-3.94-1.65z"/><path class="thyroid-cls-2" d="M13.07 17.74l.85 3A10.58 10.58 0 0 1 14.4 23c.06 1 .6 4.43.6 4.43s.52 3.06.58 4.09-.49 1.17-.22 2.07.81 4.19.81 4.19l-.46 1.74-3.38-1.82-1.28-4.5s-.79-2 .21-2.19 1.92-1.83 1.92-1.83v-1.83l.18-4.59S13 21 12.61 19.49s-1.37-2.21-.6-2.6 1.06.85 1.06.85zM14.29 42.07c.22 2.12.11 7.32.11 7.32a14.82 14.82 0 0 0-.56 3.37A30.05 30.05 0 0 0 14.4 57s1.24 2.5.9 3.37-.45-.67-.45 2.12-1.24 3.78-.79 6 1.57 1.82 1.8 3.65-.34 3.08-.34 5.2.11 3 .11 4.33-1.24 1.64-1.24 1-1.12-2.7-.56-4.43a19.61 19.61 0 0 0 .34-5.3S14 72.12 13.5 70s-.9-4.1-.9-4.1l.79-3.85a9 9 0 0 0-.22-3.75c-.56-2-2.81-2.7-3.49-2.89s.22-.39.45-2.6a37.52 37.52 0 0 0 0-5.3s.11-5.51.79-5.51 3.37.07 3.37.07z"/></g><path class="thyroid-cls-6" d="M14.29 22.15a4.23 4.23 0 0 1-1.56-.58c-1.17-.56-1.57-1.45-2.18-2.79a23 23 0 0 0-1.62-3.07 7.56 7.56 0 0 1-.83-6.58c.09-.37.17-.73.23-1.13.09-.56.27-1.22.46-1.92.49-1.84 1-3.94.36-5L8.49 0l2 1.5c.36.13 3.68 1.37 5.46 1.91s9 .48 9.67.47L34.49 0l.78 1a6.19 6.19 0 0 1 .39 3c-.08 1.33 0 3.42 0 4.81v1.57a8.35 8.35 0 0 1-.81 4.12 11.6 11.6 0 0 0-.95 3.4 12 12 0 0 1-.28 1.38c-.36 1.25-2.19 2-2.27 2.07h-.06l-1.52-.2a4.3 4.3 0 0 0-1.18 0 1.13 1.13 0 0 1-1.08-.33 4.15 4.15 0 0 0-3.17-.53 21.88 21.88 0 0 1-4.78.49 7.42 7.42 0 0 0-2.92.62l-.94.33c-.32.11-.55.2-.73.28a1.75 1.75 0 0 1-.68.14zM9.84 1.63a11.26 11.26 0 0 1-.61 4.61c-.23.69-.36 1.34-.45 1.88-.06.36-.15.73-.23 1.12a7.17 7.17 0 0 0 .76 6.23A23.51 23.51 0 0 1 11 18.59c.59 1.29.94 2.07 2 2.57 1.3.62 1.31.62 1.87.38.19-.08.43-.18.77-.29l.93-.33a7.9 7.9 0 0 1 3.08-.64 21.38 21.38 0 0 0 4.66-.47 4.61 4.61 0 0 1 3.58.63.7.7 0 0 0 .73.22 4.8 4.8 0 0 1 1.29 0l1.4.18a3.82 3.82 0 0 0 2-1.75 11.77 11.77 0 0 0 .26-1.32 12.13 12.13 0 0 1 1-3.53 7.84 7.84 0 0 0 .77-3.91V10 8.76c0-1.39-.06-3.49 0-4.84a6.14 6.14 0 0 0-.32-2.68l-.54-.68-8.7 3.8c-.32 0-7.93.09-9.85-.49S10.31 2 10.27 1.94h-.06z"/><path class="thyroid-cls-6" d="M26 29.34H23.11a17.66 17.66 0 0 1-5-.58c-1.21-.28-3.36-.86-4-1.07s-.41-.66-.36-1.19a3.39 3.39 0 0 0-.11-1.54 3.79 3.79 0 0 1 .15-2.76c.06-.18.12-.37.18-.57l.44.13c-.06.2-.12.39-.18.58a3.34 3.34 0 0 0-.16 2.45 3.76 3.76 0 0 1 .14 1.75 1 1 0 0 0 .05.72c.53.18 2.64.76 3.91 1.05a17.33 17.33 0 0 0 4.89.57h1.93a7.07 7.07 0 0 0 2.95-.29 12.94 12.94 0 0 1 1.43-.45c.76-.2 1.36-.36 1.47-.75a11.31 11.31 0 0 0-.08-3.13v-.34a3.82 3.82 0 0 1 .73-3.06l.35.3a3.4 3.4 0 0 0-.62 2.71v.34a11.18 11.18 0 0 1 .07 3.31c-.19.63-.89.82-1.79 1.07a12.63 12.63 0 0 0-1.38.43 5.62 5.62 0 0 1-2.12.32z"/><path class="thyroid-cls-6" d="M25.05 36.27a19.21 19.21 0 0 1-2-.14c-.43 0-.81-.09-1.07-.09-.82 0-2.87-.15-4.52-.27l-1.57-.11a2.69 2.69 0 0 1-2.23-1.24l-.07-.1a12.5 12.5 0 0 1-.27-3.41 8.67 8.67 0 0 1 .59-1.84l1-1.38.35.31-1 1.35a8.93 8.93 0 0 0-.52 1.64 17.28 17.28 0 0 0 .19 3.1l.07.06a2.25 2.25 0 0 0 1.88 1l1.57.11c1.64.12 3.68.27 4.49.27.29 0 .67 0 1.12.09 1.33.14 3.15.34 4.27-.34.61-.37 1.16-.64 1.64-.88a3.16 3.16 0 0 0 1.42-1 9.64 9.64 0 0 0 .09-3.4 5.86 5.86 0 0 1 0-.77c0-.35 0-.39-.19-.51l.25-.39a.86.86 0 0 1 .41.9 5.46 5.46 0 0 0 0 .71s.33 2.86-.13 3.79a3.32 3.32 0 0 1-1.63 1.16c-.48.23-1 .49-1.61.86a4.86 4.86 0 0 1-2.53.52z"/><path class="thyroid-cls-6" d="M15.31 29.53q.67.16 1.35.28c.44.08.89.19 1.34.19a9 9 0 0 1 1.35.21l1.33.27a17.1 17.1 0 0 0 2.69.33 16.56 16.56 0 0 0 2.68-.07c.5-.17 1-.33 1.51-.46l.09.22c-.46.25-.94.48-1.42.69a8.67 8.67 0 0 1-1.4.18 12.93 12.93 0 0 1-1.4 0c-.46 0-.92-.07-1.38-.13l-1.37-.17c-.55-.07-1-.07-1.45-.2a6.29 6.29 0 0 1-1.33-.38l-2.6-.92zM17.6 23.65q.56.1 1.11.17a11.17 11.17 0 0 0 1.12.11A5.94 5.94 0 0 1 21 24l1 .21a11.48 11.48 0 0 0 2.21.13 10.72 10.72 0 0 0 2.15-.27h-.05c.38-.21.77-.4 1.17-.58l.12.2c-.34.28-.69.54-1 .79h-.04a5.76 5.76 0 0 1-1.13.29 8.51 8.51 0 0 1-1.15.09h-1.15c-.38 0-.76 0-1.14-.07s-.76-.06-1.13-.13a4.32 4.32 0 0 1-1.1-.28l-2.15-.72zM20.18 13.6c-.08.49-.17 1-.2 1.48a9.2 9.2 0 0 1-.23 1.46 10.39 10.39 0 0 0-.13 2.91q.13.41.22.83l-.16.06q-.21-.38-.38-.77a9.62 9.62 0 0 1 0-3 5.3 5.3 0 0 1 .35-1.57c.18-.47.33-1 .51-1.42zM24.29 15.1a9.75 9.75 0 0 0 0 1.1 4.49 4.49 0 0 1-.06 1.08 7.08 7.08 0 0 0 .09 2.11 5.71 5.71 0 0 1 .21.6l-.18.01a5.71 5.71 0 0 1-.35-.5 6.55 6.55 0 0 1-.19-2.23 3 3 0 0 1 .16-1.09c.12-.35.21-.71.33-1.06zM28.45 29.78a2.72 2.72 0 0 0 .61-.24 1.9 1.9 0 0 0 .49-.36l.3.35a2.29 2.29 0 0 1-.68.28 2.87 2.87 0 0 1-.69.08zM25.05 43.88a19.21 19.21 0 0 1-2-.14c-.43 0-.81-.09-1.07-.09-.82 0-2.87-.15-4.52-.27l-1.57-.11A2.69 2.69 0 0 1 13.62 42l-.07-.1a12.5 12.5 0 0 1-.27-3.41 8.67 8.67 0 0 1 .59-1.84l1-1.65.39.24-1 1.64a8.79 8.79 0 0 0-.53 1.66 17.28 17.28 0 0 0 .19 3.1l.08.11a2.25 2.25 0 0 0 1.88 1l1.57.11c1.64.12 3.68.27 4.49.27.29 0 .67 0 1.12.09 1.33.14 3.15.34 4.27-.34.61-.37 1.16-.64 1.64-.88a3.16 3.16 0 0 0 1.42-1 9.64 9.64 0 0 0 .09-3.53 5.86 5.86 0 0 1 0-.77c0-.35 0-.39-.19-.51-.5-.19-1.71-1.19-1.76-1.27l.3-.35s1.23 1.05 1.66 1.33a.86.86 0 0 1 .41.9 5.45 5.45 0 0 0 0 .71s.33 2.86-.13 3.79a3.32 3.32 0 0 1-1.63 1.16c-.48.23-1 .49-1.61.86a4.86 4.86 0 0 1-2.48.56z"/><path class="thyroid-cls-6" d="M15.32 37.09a12.9 12.9 0 0 0 1.32.38 7.67 7.67 0 0 0 1.36.23 5.32 5.32 0 0 1 .69 0c.22 0 .44.1.67.14l1.33.26c.89.16 1.79.27 2.69.35a13.15 13.15 0 0 0 2.69 0l1.46-.45.06.14-1.43.65a9.16 9.16 0 0 1-1.38.19h-1.39a21 21 0 0 1-2.76-.27l-1.36-.24c-.23 0-.45-.08-.68-.14a3.91 3.91 0 0 1-.68-.33 12.05 12.05 0 0 0-1.31-.44c-.44-.12-.88-.26-1.32-.36zM28.46 37.45a2.76 2.76 0 0 0 .61-.27 1.85 1.85 0 0 0 .48-.39l.3.35a2.24 2.24 0 0 1-.7.25 2.82 2.82 0 0 1-.69.06zM25.05 53.89a19.19 19.19 0 0 1-2-.14c-.43 0-.81-.09-1.07-.09-.83 0-2.89-.15-4.54-.27l-1.55-.11A2.69 2.69 0 0 1 13.62 52l-.07-.1a12.5 12.5 0 0 1-.27-3.41 8.67 8.67 0 0 1 .59-1.84l1.31-2.24 6.32.3 7.27-.2.07.06s1.23 1.05 1.66 1.33a.86.86 0 0 1 .41.9 5.45 5.45 0 0 0 0 .71s.33 2.86-.13 3.79a3.32 3.32 0 0 1-1.63 1.16c-.47.23-1 .49-1.61.86a4.86 4.86 0 0 1-2.49.57zm-10.78-7a8.87 8.87 0 0 0-.54 1.67 17.28 17.28 0 0 0 .19 3.1l.08.11a2.25 2.25 0 0 0 1.88 1l1.55.11c1.65.12 3.7.27 4.51.27.29 0 .68 0 1.12.09 1.33.14 3.15.34 4.27-.34.61-.37 1.16-.64 1.64-.88a3.16 3.16 0 0 0 1.42-1 9.64 9.64 0 0 0 .09-3.53 5.86 5.86 0 0 1 0-.77c0-.35 0-.39-.19-.51-.45-.21-1.42-.99-1.69-1.21l-7.11.19-6.06-.28z"/><path class="thyroid-cls-6" d="M15.32 47.1a45.24 45.24 0 0 0 5.34 1.18 17 17 0 0 0 5.4.12l1.45-.6.17.43-1.47.56a17.26 17.26 0 0 1-5.52-.26 45.45 45.45 0 0 1-5.33-1.32zM28.44 47.34a2.7 2.7 0 0 0 .56-.2 1.94 1.94 0 0 0 .5-.33l.3.35a2.34 2.34 0 0 1-.67.31 2.84 2.84 0 0 1-.48.1h-.21zM25.05 61.3c-.71 0-1.43-.07-2-.13-.43 0-.81-.08-1.07-.08-.82 0-2.88-.14-4.52-.25l-1.56-.1a2.74 2.74 0 0 1-2.22-1.13l-.07-.09a9.87 9.87 0 0 1-.28-3.14 7.42 7.42 0 0 1 .59-1.7l1.25-1.95.33.27-1.24 1.94a7.49 7.49 0 0 0-.53 1.51 14.78 14.78 0 0 0 .19 2.8l.08.07a2.29 2.29 0 0 0 1.89 1l1.57.1c1.64.11 3.68.25 4.49.25.29 0 .67 0 1.12.08 1.33.13 3.16.31 4.28-.32.61-.34 1.16-.59 1.64-.8a3.24 3.24 0 0 0 1.41-.87 8 8 0 0 0 .09-3.21 5 5 0 0 1 0-.7c0-.32 0-.34-.19-.45-.46-.27-1.66-1.21-1.71-1.25l.28-.36s1.23 1 1.66 1.22a.78.78 0 0 1 .41.84 4.49 4.49 0 0 0 0 .65s.33 2.63-.14 3.49A3.3 3.3 0 0 1 29.17 60c-.48.21-1 .45-1.61.78a5.22 5.22 0 0 1-2.51.52z"/><path class="thyroid-cls-6" d="M15.33 55a48.77 48.77 0 0 0 5.34 1.09 18.5 18.5 0 0 0 5.39.12l1.46-.54.16.43-1.47.51a18.83 18.83 0 0 1-5.51-.23 49 49 0 0 1-5.35-1.2zM28.45 55.38a3 3 0 0 0 .61-.24 1.92 1.92 0 0 0 .49-.36l.28.36a2.31 2.31 0 0 1-.69.24 3 3 0 0 1-.68 0zM25.05 67.94c-.71 0-1.43-.07-2-.13-.43 0-.81-.08-1.07-.08-.82 0-2.88-.14-4.52-.25l-1.56-.1a2.74 2.74 0 0 1-2.22-1.13l-.07-.09a9.87 9.87 0 0 1-.34-3.16 7.43 7.43 0 0 1 .59-1.7l.92-1.3.37.27-.9 1.26a7.56 7.56 0 0 0-.52 1.5 14.78 14.78 0 0 0 .19 2.8L14 66a2.29 2.29 0 0 0 1.89 1h1.55c1.64.11 3.68.25 4.49.25.29 0 .67 0 1.12.08 1.33.13 3.16.31 4.28-.32.61-.34 1.16-.59 1.64-.8a3.24 3.24 0 0 0 1.41-.87 8 8 0 0 0 .09-3.21 5 5 0 0 1 0-.7c0-.32 0-.34-.19-.45-.46-.27-1.66-1.21-1.71-1.25l.28-.36s1.23 1 1.66 1.22a.78.78 0 0 1 .41.84 4.49 4.49 0 0 0 0 .65s.33 2.63-.14 3.49a3.3 3.3 0 0 1-1.63 1.07c-.48.21-1 .45-1.61.78a5.22 5.22 0 0 1-2.49.52z"/><path class="thyroid-cls-6" d="M15.3 61.78c1.79.37 3.58.7 5.38.91a26.68 26.68 0 0 0 2.7.22h1.34c.44 0 .88-.07 1.32-.11H26c.49-.16 1-.32 1.49-.44l.16.43c-.47.23-.95.42-1.43.61h-.07a10.87 10.87 0 0 1-2.8.1 27.22 27.22 0 0 1-2.74-.36 40.12 40.12 0 0 1-5.31-1.36zM28.44 61.91h.2a2.71 2.71 0 0 0 .36-.18 2 2 0 0 0 .51-.3l.28.36a2.43 2.43 0 0 1-.67.29 3 3 0 0 1-.48.09h-.21zM25 75c-.71 0-1.43-.07-2-.13-.43 0-.81-.08-1.07-.08-.82 0-2.88-.14-4.52-.25l-1.56-.1a2.73 2.73 0 0 1-2.22-1.13l-.07-.09a9.87 9.87 0 0 1-.29-3.22 7.43 7.43 0 0 1 .59-1.7l1.25-1.95.39.25-1.24 1.94a7.49 7.49 0 0 0-.53 1.51 14.78 14.78 0 0 0 .19 2.8L14 73a2.28 2.28 0 0 0 1.89 1l1.57.1c1.64.11 3.68.25 4.49.25.29 0 .67 0 1.12.08 1.33.13 3.16.31 4.28-.32.61-.34 1.16-.59 1.64-.8a3.24 3.24 0 0 0 1.42-.87 8 8 0 0 0 .09-3.21 5 5 0 0 1 0-.7c0-.32 0-.34-.19-.45-.46-.27-1.66-1.21-1.71-1.25l.28-.36s1.23 1 1.66 1.22a.78.78 0 0 1 .41.84 4.49 4.49 0 0 0 0 .65s.33 2.63-.14 3.48a3.31 3.31 0 0 1-1.63 1.07c-.48.21-1 .45-1.61.78A5.22 5.22 0 0 1 25 75z"/><path class="thyroid-cls-6" d="M15.33 68.7c1.8.32 3.58.66 5.37.93.9.12 1.79.24 2.69.31h1.34a7.09 7.09 0 0 0 1.35 0 8.66 8.66 0 0 0 1.43-.63l.16.43a8.66 8.66 0 0 0-1.5.43c-.46.07-.91.22-1.37.27s-.93 0-1.39 0a19.07 19.07 0 0 1-2.75-.27 28 28 0 0 1-5.33-1.36zM28.44 68.93h.2a2.71 2.71 0 0 0 .36-.18 2 2 0 0 0 .51-.3l.28.36a2.43 2.43 0 0 1-.67.29 3 3 0 0 1-.48.09h-.21zM25.05 82c-.71 0-1.43-.07-2-.13-.43 0-.81-.08-1.07-.08-.82 0-2.85-.14-4.49-.25l-1.6-.1a2.74 2.74 0 0 1-2.22-1.13l-.07-.09a9.87 9.87 0 0 1-.28-3.14 7.43 7.43 0 0 1 .59-1.7l.91-1.29.37.27-.9 1.26a7.54 7.54 0 0 0-.52 1.5 14.79 14.79 0 0 0 .19 2.81L14 80a2.29 2.29 0 0 0 1.89 1l1.6.11c1.63.11 3.65.25 4.45.25.29 0 .67 0 1.12.08 1.33.13 3.16.31 4.28-.32.61-.34 1.16-.59 1.64-.8a3.24 3.24 0 0 0 1.42-.87 8 8 0 0 0 .09-3.21 5 5 0 0 1 0-.7c0-.32 0-.34-.19-.45-.46-.27-1.66-1.21-1.71-1.25l.28-.36s1.23 1 1.66 1.22a.78.78 0 0 1 .41.84 4.5 4.5 0 0 0 0 .65s.33 2.63-.14 3.48a3.31 3.31 0 0 1-1.63 1.07c-.48.21-1 .45-1.61.78a5.22 5.22 0 0 1-2.51.48z"/><path class="thyroid-cls-6" d="M15.32 75.78c1.82.22 3.59.63 5.38.89a19.91 19.91 0 0 0 5.36.25 8.86 8.86 0 0 1 1.52-.38l.06.17a8.86 8.86 0 0 1-1.41.68 13.53 13.53 0 0 1-2.79.16 22 22 0 0 1-2.75-.27 22.78 22.78 0 0 1-5.32-1.4zM28.44 76a2.91 2.91 0 0 0 .61-.2 2 2 0 0 0 .5-.32l.28.36a2.38 2.38 0 0 1-.68.27 3.11 3.11 0 0 1-.69.09zM10.81 10.28s.38-.33 1-.95 1.53-1.53 2.73-2.49a7.38 7.38 0 0 1 2.15-1.27 1.77 1.77 0 0 1 1.42.11 4.77 4.77 0 0 1 1.11.91 8.92 8.92 0 0 1 1.44 2.59 13.91 13.91 0 0 0 .67 1.33 2.49 2.49 0 0 0 .92 1 1 1 0 0 0 .93-.74c.21-.44.39-.92.58-1.38a10.73 10.73 0 0 1 1.41-2.6 3.33 3.33 0 0 1 1.13-.89 2.54 2.54 0 0 1 1.37-.22 6.46 6.46 0 0 1 2.31.9 18.51 18.51 0 0 1 3 2.1c.34.29.59.54.77.7a.78.78 0 0 0 .35.18l-.34.31a.56.56 0 0 0-.16-.34c-.16-.17-.42-.4-.75-.69a18.3 18.3 0 0 0-3-2.06 6.28 6.28 0 0 0-2.23-.87 2.27 2.27 0 0 0-1.24.21 3.1 3.1 0 0 0-1 .87A10.5 10.5 0 0 0 24 9.53c-.19.46-.35.93-.58 1.41a2.65 2.65 0 0 1-.45.67.79.79 0 0 1-.84.23 2.69 2.69 0 0 1-1.08-1.17 14.2 14.2 0 0 1-.68-1.36A8.65 8.65 0 0 0 19 6.79a4.43 4.43 0 0 0-1-.86 1.48 1.48 0 0 0-1.17-.07 7.13 7.13 0 0 0-2.05 1.22C13.57 8 12.68 8.94 12 9.55s-1 1-1 1z"/><path class="thyroid-cls-7" d="M8.33 22.64c-1.8.48-1.46 1.14-2.47 1.62a5.23 5.23 0 0 0-1.8 1.81 7.09 7.09 0 0 0-.67 2.76c.11 1-2.36 1.71-2.92 4.67a17.33 17.33 0 0 0 0 7A29.43 29.43 0 0 0 3 45.3c1.12 1.81 1.24 3.9 2.81 4.48s1.57 1.62 3.49 1.43a11 11 0 0 0 5.62-3c1-1.14 1.46-3 3.6-3.33s4.61-.67 5.4 0 2.59 2.09 3 3.33a6.37 6.37 0 0 0 3.26 3c.9.19 1.35.86 2.92.19a9.78 9.78 0 0 0 2.92-1.52A24.79 24.79 0 0 0 38.69 46l2.36-5a33.5 33.5 0 0 0 .56-4.48c0-1.52.67-2.48.79-4a7.44 7.44 0 0 0-.34-4.29c-.79-2.57-2.81-5-3.26-5.9s-1.57-1.24-3.26-.19-3.82 1.86-3.82 3.35-1.12 4-1.46 4.86a13.42 13.42 0 0 1-1.46 3c-.79 1.14-.67 2.38-1.69 2.38s-.22-1.43-2.47-.67a5.65 5.65 0 0 0-3.37 2.29c-.67.86-.56 2.48-2.36 1.14s-3-2.19-3.94-4.19-.9-4-2.25-5.33 1-1.43.34-3 .34-1-1.46-2.09a7.66 7.66 0 0 0-3.27-1.24z"/><g class="thyroid-cls-8"><path class="thyroid-cls-9" d="M27.45 37.3a3.26 3.26 0 0 0-1.69 3.24 18.39 18.39 0 0 0 .11 4 2.27 2.27 0 0 1 .34.76c.11.38.79 1.71.45 1.24s-1.8-3.24-2.92-3.24-4.84.38-4.84.38-2.59.86-3 1.71-.6 1.61-1.16 1.53-.67-.57-.45-2.76a17.44 17.44 0 0 0-.22-4.48s-.45-2.76-.56-3.52-1.57-3.52-.56-3.14 2.47 2.76 2.47 2.76l3 1.71a2.66 2.66 0 0 0 1.69 1c1.24.29 1.57.1 2.7-.86s.11-1 1.24-1.52 1.69-.29 1.35.38-1.69 1.71-.9 1.9 2-2.09 2.47-1.71a1 1 0 0 1 .48.62zM40.6 23.68c-2.81 0-3.15-1.14-4.27.29a21.07 21.07 0 0 0-2.14 3.71l-2 3.62s-2.81 2.09-1.8.1a47.79 47.79 0 0 0 2-5s-1.35-.1.34-1 .11-1.52 1.57-2.09 1.69-1.62 2.81-1.62 3.82-.76 4 .29a1.85 1.85 0 0 1-.51 1.7zM3.61 23.11a27.4 27.4 0 0 1 1.57 5 5.19 5.19 0 0 1 0 3c-.56 1.14-1.24.57-1.35 3s-.67 3.14 0 5 .34 2.57 1.57 4.19 1.24 2 1.24 3a5.42 5.42 0 0 1-.9 2.29S5 47.4 3.94 46a21.32 21.32 0 0 1-2.58-4.7C.91 40-.44 37.49 0 36s1.46-4.38 1.46-4.38l1.57-2s-.45-.19-.67-2.86 1.25-3.65 1.25-3.65z"/></g><path class="thyroid-cls-6" d="M32 51.8a2.72 2.72 0 0 1-1.09-.27 3.68 3.68 0 0 0-.64-.22 6.48 6.48 0 0 1-3.34-3.12c-.4-1.1-2-2.4-2.78-3.1l-.22-.18c-.7-.59-3-.29-4.93 0l-.37.05a3.8 3.8 0 0 0-2.75 2.2 8.36 8.36 0 0 1-.77 1.09 11.1 11.1 0 0 1-5.7 3.09 2.65 2.65 0 0 1-2.25-.68 4.31 4.31 0 0 0-1.28-.76c-1.07-.39-1.48-1.41-2-2.6a12 12 0 0 0-.91-1.92 31.46 31.46 0 0 1-2.6-4.88 17.39 17.39 0 0 1 0-7A6.08 6.08 0 0 1 2.45 30a1.78 1.78 0 0 0 .82-1.18A7.07 7.07 0 0 1 4 26a5.26 5.26 0 0 1 1.85-1.87 2.05 2.05 0 0 0 .75-.6 2.87 2.87 0 0 1 1.75-1 7.7 7.7 0 0 1 3.32 1.26l.1.07c1.08.68 1.1.7 1.13 1.07a3 3 0 0 0 .27 1 1.44 1.44 0 0 1-.39 1.69.76.76 0 0 0 0 1.31 6.83 6.83 0 0 1 1.54 3.2 15.34 15.34 0 0 0 .74 2.16c.85 1.89 2 2.72 3.68 4l.26.16a1.58 1.58 0 0 0 1.16.47 1.27 1.27 0 0 0 .61-.81 3.65 3.65 0 0 1 .43-.78l.08-.11A5.71 5.71 0 0 1 24.6 35c1.37-.47 1.69-.16 2 .3a.55.55 0 0 0 .54.36c.53 0 .7-.37 1-1.07a5.78 5.78 0 0 1 .62-1.26A11.57 11.57 0 0 0 30 30.7l.15-.39.18-.45a14.27 14.27 0 0 0 1.27-4.36c0-1.26 1.34-2 2.75-2.78.38-.21.76-.42 1.12-.65a3.15 3.15 0 0 1 2.41-.59 1.59 1.59 0 0 1 1 .82c.12.23.35.57.64 1a19.5 19.5 0 0 1 2.62 4.92 6.62 6.62 0 0 1 .43 3.49c0 .24-.07.51-.09.84a8.56 8.56 0 0 1-.4 1.89 7 7 0 0 0-.39 2.1 33.84 33.84 0 0 1-.56 4.5L38.8 46a24.37 24.37 0 0 1-2.62 4 8 8 0 0 1-2.43 1.32l-.52.22a3.24 3.24 0 0 1-1.23.26zm-9.69-7.46a2.84 2.84 0 0 1 1.76.4l.22.18c.85.71 2.43 2 2.85 3.2a6.31 6.31 0 0 0 3.18 3 3.86 3.86 0 0 1 .68.23 2.35 2.35 0 0 0 2.18 0l.52-.22a7.75 7.75 0 0 0 2.3-1.35 24.91 24.91 0 0 0 2.56-3.87L40.94 41a33 33 0 0 0 .56-4.44 7.27 7.27 0 0 1 .4-2.16 8.43 8.43 0 0 0 .39-1.84c0-.33.06-.61.09-.85a6.4 6.4 0 0 0-.38-3.42 19.32 19.32 0 0 0-2.6-4.86c-.3-.44-.53-.79-.66-1a1.37 1.37 0 0 0-.87-.71 2.93 2.93 0 0 0-2.23.56c-.37.23-.76.44-1.14.65-1.35.75-2.63 1.46-2.63 2.58a14.43 14.43 0 0 1-1.29 4.45l-.18.45-.15.39a11.71 11.71 0 0 1-1.32 2.68 5.65 5.65 0 0 0-.59 1.21c-.25.65-.47 1.22-1.19 1.22a.78.78 0 0 1-.74-.47c-.2-.33-.39-.64-1.7-.2a5.52 5.52 0 0 0-3.24 2.14l-.08.11a3.39 3.39 0 0 0-.4.73 1.42 1.42 0 0 1-.77.94 1.73 1.73 0 0 1-1.36-.51l-.22-.16c-1.67-1.24-2.88-2.13-3.75-4.07a15.54 15.54 0 0 1-.75-2.2 6.67 6.67 0 0 0-1.48-3.1 1 1 0 0 1 0-1.63 1.23 1.23 0 0 0 .29-1.49 3.28 3.28 0 0 1-.29-1.08c0-.26 0-.26-1-.89l-.13-.03a7.73 7.73 0 0 0-3.19-1.22 2.66 2.66 0 0 0-1.61.94 2.26 2.26 0 0 1-.82.66 5.14 5.14 0 0 0-1.75 1.76 7 7 0 0 0-.66 2.69 1.91 1.91 0 0 1-.89 1.37 5.88 5.88 0 0 0-2 3.33 17.12 17.12 0 0 0 0 6.89 28.67 28.67 0 0 0 2.58 4.83 12.23 12.23 0 0 1 .93 2c.46 1.14.85 2.12 1.82 2.47a4.6 4.6 0 0 1 1.35.79 2.43 2.43 0 0 0 2.09.63 10.8 10.8 0 0 0 5.55-3 8.17 8.17 0 0 0 .7-1.14 4 4 0 0 1 2.92-2.31h.37a27.32 27.32 0 0 1 3.36-.35z"/><path class="thyroid-cls-10" d="M35.82 26.72c.26 1 1 1.87.79 2.47a6.76 6.76 0 0 0-.18 1.72c0 .3 1.15-.45 1.32-1.2s1.24-1 .26-1.87a4 4 0 0 1-1.41-1.94c-.25-.67-.78.82-.78.82z"/><path class="thyroid-cls-10" d="M37 30.09l1 2.47s-.09 2.17-.09 2.61.56.83.47 1.83.18 1.79-.71 2.84-1 5.23-1 5.23l-2.35 1.23s-1.32.52-.44-.3.79-3.06.79-3.06-1.32-.82-1.85.22-1.06-1.64-.18-2.47 2.29-.3 3.09-1.72.88-1.34.88-2.39a20 20 0 0 0-.26-2.58 4 4 0 0 1-.18-2.32 9.56 9.56 0 0 1 .83-1.59zM6.71 32.18C6.26 33.6 4.77 34 4.77 35.09s-1 2.54-.79 3.29a5.7 5.7 0 0 0 .62 1.42c.26.6.62 1.79.71 0S4 37.93 4.94 36.51a3.8 3.8 0 0 0 .88-2.24s.71-2 1.06-1.34 1 2.39 1 2.39A7.82 7.82 0 0 1 10 37.18a4.47 4.47 0 0 1 .71 2.09c.26 1.42.18 1.79-.35 1.34S10 39 9.26 38.08s-.08-1.2-1.26-1.94-1.15-.37-1.32-1.27a12.85 12.85 0 0 1 .03-2.69zM7.15 44.73c.79.75 1.59 1 1.5 1.87s.44 1.57-.35 1.34.18-1.34-.79-2.09-1.32-.3-1.32-.9.96-.22.96-.22zM8.56 24c-.18.45-.88 1.12-.18 1.49A4.42 4.42 0 0 1 9.71 27s0 1-.44.67a6 6 0 0 0-1.41-1A1.29 1.29 0 0 1 7.24 25a1.94 1.94 0 0 1 1.15-1.27zM37.6 24a7.11 7.11 0 0 1 1.9 2l1-.6a2.8 2.8 0 0 0-1.35-1.49 3.55 3.55 0 0 0-1.55.09zM31.92 44.26a3.09 3.09 0 0 0 .43 1.81s.86 2.53-.17 1.59-1.83-1.66-1.47-2.55a4.17 4.17 0 0 1 1.21-1.57v.72zM11.82 46.07a1.91 1.91 0 0 1-.17 2c-.26.36-.09.87.51.51a2.7 2.7 0 0 0 .84-1.49l-.41-1.59zM12.08 37.75a13 13 0 0 1 .92 3.47 4 4 0 0 1 .09 2.24c-.34.65-.94 1.52-.77.58a11.59 11.59 0 0 0 0-2.53 3.54 3.54 0 0 1-.43-1.81 11.16 11.16 0 0 0-.34-2.24z"/></svg>